<?xml version="1.0" encoding="UTF-8" standalone="no"?>
<svg
   xmlns:dc="http://purl.org/dc/elements/1.1/"
   xmlns:cc="http://creativecommons.org/ns#"
   xmlns:rdf="http://www.w3.org/1999/02/22-rdf-syntax-ns#"
   xmlns:svg="http://www.w3.org/2000/svg"
   xmlns="http://www.w3.org/2000/svg"
   xmlns:sodipodi="http://sodipodi.sourceforge.net/DTD/sodipodi-0.dtd"
   xmlns:inkscape="http://www.inkscape.org/namespaces/inkscape"
   version="1.1"
   viewBox="0 0 941.72272 353.7428"
   stroke-miterlimit="10"
   id="svg133"
   sodipodi:docname="policy_session_bad.svg"
   width="941.72272"
   height="353.7428"
   style="fill:none;stroke:none;stroke-linecap:square;stroke-miterlimit:10"
   inkscape:version="0.92.2pre0 (973e216, 2017-07-25)">
  <metadata
     id="metadata139">
    <rdf:RDF>
      <cc:Work
         rdf:about="">
        <dc:format>image/svg+xml</dc:format>
        <dc:type
           rdf:resource="http://purl.org/dc/dcmitype/StillImage" />
        <dc:title></dc:title>
      </cc:Work>
    </rdf:RDF>
  </metadata>
  <defs
     id="defs137" />
  <sodipodi:namedview
     pagecolor="#ffffff"
     bordercolor="#666666"
     borderopacity="1"
     objecttolerance="10"
     gridtolerance="10"
     guidetolerance="10"
     inkscape:pageopacity="0"
     inkscape:pageshadow="2"
     inkscape:window-width="640"
     inkscape:window-height="480"
     id="namedview135"
     showgrid="false"
     fit-margin-top="0"
     fit-margin-left="0"
     fit-margin-right="0"
     fit-margin-bottom="0"
     inkscape:zoom="0.30625"
     inkscape:cx="468.1378"
     inkscape:cy="259.42126"
     inkscape:window-x="0"
     inkscape:window-y="0"
     inkscape:window-maximized="0"
     inkscape:current-layer="g131" />
  <clipPath
     id="p.0">
    <path
       d="M 0,0 H 960 V 720 H 0 Z"
       id="path2"
       inkscape:connector-curvature="0"
       style="clip-rule:nonzero" />
  </clipPath>
  <g
     clip-path="url(#p.0)"
     id="g131"
     transform="translate(-11.862205,-265.67847)">
    <path
       d="M 0,0 H 960 V 720 H 0 Z"
       id="path5"
       inkscape:connector-curvature="0"
       style="fill:#000000;fill-opacity:0;fill-rule:evenodd" />
    <path
       d="m 202.7399,395.53003 h 147.83646 v 61.66928 H 202.7399 Z"
       id="path7"
       inkscape:connector-curvature="0"
       style="fill:#c9daf8;fill-rule:evenodd" />
    <path
       d="m 202.7399,395.53003 h 147.83646 v 61.66928 H 202.7399 Z"
       id="path9"
       inkscape:connector-curvature="0"
       style="fill-rule:evenodd;stroke:#000000;stroke-width:1;stroke-linecap:butt;stroke-linejoin:round" />
    <path
       d="m 217.4355,433.28467 v -13.35938 h 5.04687 q 1.32813,0 2.03125,0.125 0.96875,0.17188 1.64063,0.64063 0.67187,0.45312 1.07812,1.28125 0.40625,0.82812 0.40625,1.82812 0,1.70313 -1.09375,2.89063 -1.07812,1.17187 -3.92187,1.17187 h -3.42188 v 5.42188 z m 1.76562,-7 h 3.45313 q 1.71875,0 2.4375,-0.64063 0.71875,-0.64062 0.71875,-1.79687 0,-0.84375 -0.42188,-1.4375 -0.42187,-0.59375 -1.125,-0.78125 -0.4375,-0.125 -1.64062,-0.125 h -3.42188 z m 9.86545,2.15625 q 0,-2.6875 1.48438,-3.96875 1.25,-1.07813 3.04687,-1.07813 2,0 3.26563,1.3125 1.26562,1.29688 1.26562,3.60938 0,1.85937 -0.5625,2.9375 -0.5625,1.0625 -1.64062,1.65625 -1.0625,0.59375 -2.32813,0.59375 -2.03125,0 -3.28125,-1.29688 -1.25,-1.3125 -1.25,-3.76562 z m 1.6875,0 q 0,1.85937 0.79688,2.79687 0.8125,0.92188 2.04687,0.92188 1.21875,0 2.03125,-0.92188 0.8125,-0.9375 0.8125,-2.84375 0,-1.79687 -0.8125,-2.71875 -0.8125,-0.92187 -2.03125,-0.92187 -1.23437,0 -2.04687,0.92187 -0.79688,0.90625 -0.79688,2.76563 z m 9.25072,4.84375 v -13.35938 h 1.64063 v 13.35938 z m 4.1917,-11.46875 v -1.89063 h 1.64062 v 1.89063 z m 0,11.46875 v -9.67188 h 1.64062 v 9.67188 z m 10.45732,-3.54688 1.60937,0.21875 q -0.26562,1.65625 -1.35937,2.60938 -1.07813,0.9375 -2.67188,0.9375 -1.98437,0 -3.1875,-1.29688 -1.20312,-1.29687 -1.20312,-3.71875 0,-1.57812 0.51562,-2.75 0.51563,-1.17187 1.57813,-1.75 1.0625,-0.59375 2.3125,-0.59375 1.57812,0 2.57812,0.79688 1,0.79687 1.28125,2.26562 l -1.59375,0.23438 q -0.23437,-0.96875 -0.8125,-1.45313 -0.57812,-0.5 -1.39062,-0.5 -1.23438,0 -2.01563,0.89063 -0.78125,0.89062 -0.78125,2.8125 0,1.95312 0.75,2.84375 0.75,0.875 1.95313,0.875 0.96875,0 1.60937,-0.59375 0.65625,-0.59375 0.82813,-1.82813 z m 2.9375,7.26563 -0.1875,-1.53125 q 0.54687,0.14062 0.9375,0.14062 0.54687,0 0.875,-0.1875 0.32812,-0.17187 0.54687,-0.5 0.15625,-0.25 0.5,-1.21875 0.0469,-0.14062 0.14063,-0.40625 l -3.67188,-9.6875 h 1.76563 l 2.01562,5.59375 q 0.39063,1.07813 0.70313,2.25 0.28125,-1.125 0.67187,-2.20312 l 2.07813,-5.64063 h 1.64062 l -3.6875,9.82813 q -0.59375,1.60937 -0.92187,2.20312 -0.4375,0.8125 -1,1.1875 -0.5625,0.375 -1.34375,0.375 -0.48438,0 -1.0625,-0.20312 z m 14.19891,-8.01563 1.65625,-0.14062 q 0.125,1 0.54688,1.64062 0.4375,0.64063 1.34375,1.04688 0.92187,0.39062 2.0625,0.39062 1,0 1.78125,-0.29687 0.78125,-0.29688 1.15625,-0.8125 0.375,-0.53125 0.375,-1.15625 0,-0.625 -0.375,-1.09375 -0.35938,-0.46875 -1.1875,-0.79688 -0.54688,-0.20312 -2.39063,-0.64062 -1.82812,-0.45313 -2.5625,-0.84375 -0.96875,-0.5 -1.4375,-1.23438 -0.46875,-0.75 -0.46875,-1.67187 0,-1 0.57813,-1.875 0.57812,-0.89063 1.67187,-1.34375 1.10938,-0.45313 2.45313,-0.45313 1.48437,0 2.60937,0.48438 1.14063,0.46875 1.75,1.40625 0.60938,0.92187 0.65625,2.09375 l -1.6875,0.125 q -0.14062,-1.26563 -0.9375,-1.90625 -0.78125,-0.65625 -2.3125,-0.65625 -1.60937,0 -2.34375,0.59375 -0.73437,0.59375 -0.73437,1.42187 0,0.71875 0.53125,1.17188 0.5,0.46875 2.65625,0.96875 2.15625,0.48437 2.95312,0.84375 1.17188,0.53125 1.71875,1.35937 0.5625,0.82813 0.5625,1.90625 0,1.0625 -0.60937,2.01563 -0.60938,0.9375 -1.75,1.46875 -1.14063,0.51562 -2.57813,0.51562 -1.8125,0 -3.04687,-0.53125 -1.21875,-0.53125 -1.92188,-1.59375 -0.6875,-1.0625 -0.71875,-2.40625 z m 19.4592,1.1875 1.6875,0.20313 q -0.40625,1.48437 -1.48438,2.3125 -1.07812,0.8125 -2.76562,0.8125 -2.125,0 -3.375,-1.29688 -1.23438,-1.3125 -1.23438,-3.67187 0,-2.45313 1.25,-3.79688 1.26563,-1.34375 3.26563,-1.34375 1.9375,0 3.15625,1.32813 1.23437,1.3125 1.23437,3.70312 0,0.15625 0,0.4375 h -7.21875 q 0.0937,1.59375 0.90625,2.45313 0.8125,0.84375 2.01563,0.84375 0.90625,0 1.54687,-0.46875 0.64063,-0.48438 1.01563,-1.51563 z m -5.39063,-2.65625 h 5.40625 q -0.10937,-1.21875 -0.625,-1.82812 -0.78125,-0.95313 -2.03125,-0.95313 -1.125,0 -1.90625,0.76563 -0.76562,0.75 -0.84375,2.01562 z m 8.48511,2.875 1.625,-0.25 q 0.125,0.96875 0.75,1.5 0.625,0.51563 1.75,0.51563 1.125,0 1.67188,-0.45313 0.54687,-0.46875 0.54687,-1.09375 0,-0.54687 -0.48437,-0.875 -0.32813,-0.21875 -1.67188,-0.54687 -1.8125,-0.46875 -2.51562,-0.79688 -0.6875,-0.32812 -1.04688,-0.90625 -0.35937,-0.59375 -0.35937,-1.3125 0,-0.64062 0.29687,-1.1875 0.29688,-0.5625 0.8125,-0.92187 0.375,-0.28125 1.03125,-0.46875 0.67188,-0.20313 1.42188,-0.20313 1.14062,0 2,0.32813 0.85937,0.32812 1.26562,0.89062 0.42188,0.5625 0.57813,1.5 l -1.60938,0.21875 q -0.10937,-0.75 -0.64062,-1.17187 -0.51563,-0.42188 -1.46875,-0.42188 -1.14063,0 -1.625,0.375 -0.46875,0.375 -0.46875,0.875 0,0.3125 0.1875,0.57813 0.20312,0.26562 0.64062,0.4375 0.23438,0.0937 1.4375,0.42187 1.75,0.45313 2.4375,0.75 0.6875,0.29688 1.07813,0.85938 0.39062,0.5625 0.39062,1.40625 0,0.82812 -0.48437,1.54687 -0.46875,0.71875 -1.375,1.125 -0.90625,0.39063 -2.04688,0.39063 -1.875,0 -2.875,-0.78125 -0.98437,-0.78125 -1.25,-2.32813 z m 9.32813,0 1.625,-0.25 q 0.125,0.96875 0.75,1.5 0.625,0.51563 1.75,0.51563 1.125,0 1.67187,-0.45313 0.54688,-0.46875 0.54688,-1.09375 0,-0.54687 -0.48438,-0.875 -0.32812,-0.21875 -1.67187,-0.54687 -1.8125,-0.46875 -2.51563,-0.79688 -0.6875,-0.32812 -1.04687,-0.90625 -0.35938,-0.59375 -0.35938,-1.3125 0,-0.64062 0.29688,-1.1875 0.29687,-0.5625 0.8125,-0.92187 0.375,-0.28125 1.03125,-0.46875 0.67187,-0.20313 1.42187,-0.20313 1.14063,0 2,0.32813 0.85938,0.32812 1.26563,0.89062 0.42187,0.5625 0.57812,1.5 l -1.60937,0.21875 q -0.10938,-0.75 -0.64063,-1.17187 -0.51562,-0.42188 -1.46875,-0.42188 -1.14062,0 -1.625,0.375 -0.46875,0.375 -0.46875,0.875 0,0.3125 0.1875,0.57813 0.20313,0.26562 0.64063,0.4375 0.23437,0.0937 1.4375,0.42187 1.75,0.45313 2.4375,0.75 0.6875,0.29688 1.07812,0.85938 0.39063,0.5625 0.39063,1.40625 0,0.82812 -0.48438,1.54687 -0.46875,0.71875 -1.375,1.125 -0.90625,0.39063 -2.04687,0.39063 -1.875,0 -2.875,-0.78125 -0.98438,-0.78125 -1.25,-2.32813 z m 9.98437,-8.57812 v -1.89063 h 1.64063 v 1.89063 z m 0,11.46875 v -9.67188 h 1.64063 v 9.67188 z m 3.53543,-4.84375 q 0,-2.6875 1.48438,-3.96875 1.25,-1.07813 3.04687,-1.07813 2,0 3.26563,1.3125 1.26562,1.29688 1.26562,3.60938 0,1.85937 -0.5625,2.9375 -0.5625,1.0625 -1.64062,1.65625 -1.0625,0.59375 -2.32813,0.59375 -2.03125,0 -3.28125,-1.29688 -1.25,-1.3125 -1.25,-3.76562 z m 1.6875,0 q 0,1.85937 0.79688,2.79687 0.8125,0.92188 2.04687,0.92188 1.21875,0 2.03125,-0.92188 0.8125,-0.9375 0.8125,-2.84375 0,-1.79687 -0.8125,-2.71875 -0.8125,-0.92187 -2.03125,-0.92187 -1.23437,0 -2.04687,0.92187 -0.79688,0.90625 -0.79688,2.76563 z m 9.29761,4.84375 v -9.67188 h 1.46875 v 1.375 q 1.0625,-1.59375 3.07812,-1.59375 0.875,0 1.60938,0.3125 0.73437,0.3125 1.09375,0.82813 0.375,0.5 0.51562,1.20312 0.0937,0.45313 0.0937,1.59375 v 5.95313 h -1.64062 v -5.89063 q 0,-1 -0.20313,-1.48437 -0.1875,-0.5 -0.67187,-0.79688 -0.48438,-0.29687 -1.14063,-0.29687 -1.04687,0 -1.8125,0.67187 -0.75,0.65625 -0.75,2.51563 v 5.28125 z"
       id="path11"
       inkscape:connector-curvature="0"
       style="fill:#000000;fill-rule:nonzero" />
    <path
       d="m 202.7399,456.09686 h 147.83646 v 49.70078 H 202.7399 Z"
       id="path13"
       inkscape:connector-curvature="0"
       style="fill:#c9daf8;fill-rule:evenodd" />
    <path
       d="m 202.7399,456.09686 h 147.83646 v 49.70078 H 202.7399 Z"
       id="path15"
       inkscape:connector-curvature="0"
       style="fill-rule:evenodd;stroke:#000000;stroke-width:1;stroke-linecap:butt;stroke-linejoin:round" />
    <path
       d="m 229.6656,477.02725 v -10.48438 h 3.40625 q 1.92187,0 2.51562,0.15625 0.90625,0.23438 1.51563,1.03125 0.60937,0.78125 0.60937,2.03125 0,0.96875 -0.35937,1.625 -0.34375,0.65625 -0.89063,1.03125 -0.53125,0.375 -1.09375,0.5 -0.76562,0.15625 -2.20312,0.15625 h -1.375 v 3.95313 z m 2.125,-8.71875 v 2.98437 h 1.15625 q 1.25,0 1.67187,-0.15625 0.42188,-0.17187 0.65625,-0.51562 0.25,-0.35938 0.25,-0.82813 0,-0.57812 -0.34375,-0.9375 -0.32812,-0.375 -0.84375,-0.46875 -0.375,-0.0781 -1.53125,-0.0781 z m 7.18185,4.8125 q 0,-1 0.48438,-1.9375 0.5,-0.9375 1.40625,-1.42188 0.90625,-0.5 2.01562,-0.5 1.71875,0 2.82813,1.125 1.10937,1.10938 1.10937,2.8125 0,1.73438 -1.125,2.875 -1.10937,1.125 -2.79687,1.125 -1.04688,0 -2,-0.46875 -0.9375,-0.46875 -1.4375,-1.375 -0.48438,-0.92187 -0.48438,-2.23437 z m 2.04688,0.10937 q 0,1.125 0.53125,1.73438 0.54687,0.59375 1.34375,0.59375 0.78125,0 1.3125,-0.59375 0.53125,-0.60938 0.53125,-1.75 0,-1.125 -0.53125,-1.71875 -0.53125,-0.60938 -1.3125,-0.60938 -0.79688,0 -1.34375,0.60938 -0.53125,0.59375 -0.53125,1.73437 z m 7.35887,3.79688 v -10.48438 h 2.01563 v 10.48438 z m 4.07198,-8.625 v -1.85938 h 2.01562 v 1.85938 z m 0,8.625 v -7.59375 h 2.01562 v 7.59375 z m 10.69697,-5.35938 -1.96875,0.35938 q -0.10937,-0.59375 -0.46875,-0.89063 -0.34375,-0.29687 -0.90625,-0.29687 -0.75,0 -1.20312,0.51562 -0.45313,0.51563 -0.45313,1.73438 0,1.35937 0.45313,1.92187 0.45312,0.54688 1.21875,0.54688 0.57812,0 0.9375,-0.32813 0.375,-0.32812 0.51562,-1.10937 l 1.98438,0.32812 q -0.3125,1.35938 -1.1875,2.0625 -0.875,0.6875 -2.32813,0.6875 -1.67187,0 -2.67187,-1.04687 -0.98438,-1.0625 -0.98438,-2.92188 0,-1.875 0.98438,-2.92187 1,-1.04688 2.70312,-1.04688 1.39063,0 2.20313,0.59375 0.82812,0.59375 1.17187,1.8125 z m 0.57297,-2.23437 h 2.14062 l 1.82813,5.39062 1.76562,-5.39062 h 2.09375 l -2.6875,7.3125 -0.48437,1.3125 q -0.26563,0.67187 -0.51563,1.01562 -0.23437,0.35938 -0.54687,0.57813 -0.29688,0.21875 -0.76563,0.32812 -0.45312,0.125 -1.01562,0.125 -0.57813,0 -1.14063,-0.10937 l -0.17187,-1.57813 q 0.46875,0.0937 0.84375,0.0937 0.70312,0 1.03125,-0.42187 0.34375,-0.40625 0.51562,-1.04688 z m 13.19183,-2.89063 h 3.875 q 1.29688,0 1.98438,0.1875 0.92187,0.28125 1.57812,0.98438 0.67188,0.6875 1.01563,1.6875 0.34375,1 0.34375,2.48437 0,1.29688 -0.32813,2.23438 -0.39062,1.14062 -1.125,1.84375 -0.54687,0.54687 -1.48437,0.84375 -0.70313,0.21875 -1.875,0.21875 h -3.98438 z m 2.10938,1.76563 v 6.95312 h 1.59375 q 0.875,0 1.28125,-0.10937 0.51562,-0.125 0.84375,-0.42188 0.34375,-0.3125 0.5625,-1.01562 0.21875,-0.70313 0.21875,-1.92188 0,-1.21875 -0.21875,-1.85937 -0.21875,-0.65625 -0.60938,-1.01563 -0.375,-0.375 -0.96875,-0.5 -0.45312,-0.10937 -1.75,-0.10937 z m 8.45929,0.0937 v -1.85938 h 2.01562 v 1.85938 z m 0,8.625 v -7.59375 h 2.01562 v 7.59375 z m 3.88446,0.5 2.29687,0.28125 q 0.0625,0.40625 0.26563,0.54687 0.29687,0.21875 0.90625,0.21875 0.78125,0 1.1875,-0.23437 0.26562,-0.15625 0.39062,-0.51563 0.0937,-0.25 0.0937,-0.92187 v -1.10938 q -0.89062,1.23438 -2.26562,1.23438 -1.53125,0 -2.4375,-1.29688 -0.70313,-1.01562 -0.70313,-2.54687 0,-1.90625 0.92188,-2.90625 0.92187,-1.01563 2.29687,-1.01563 1.40625,0 2.32813,1.23438 v -1.0625 h 1.875 v 6.8125 q 0,1.34375 -0.21875,2 -0.21875,0.67187 -0.625,1.04687 -0.40625,0.39063 -1.07813,0.59375 -0.65625,0.21875 -1.6875,0.21875 -1.9375,0 -2.75,-0.65625 -0.79687,-0.65625 -0.79687,-1.67187 0,-0.10938 0,-0.25 z m 1.79687,-4.45313 q 0,1.20313 0.46875,1.76563 0.46875,0.5625 1.15625,0.5625 0.75,0 1.25,-0.57813 0.51563,-0.57812 0.51563,-1.70312 0,-1.1875 -0.5,-1.75 -0.48438,-0.57813 -1.21875,-0.57813 -0.73438,0 -1.20313,0.5625 -0.46875,0.5625 -0.46875,1.71875 z m 11.74952,1.53125 2,0.34375 q -0.375,1.09375 -1.21875,1.67188 -0.82813,0.57812 -2.07813,0.57812 -1.98437,0 -2.9375,-1.29687 -0.75,-1.03125 -0.75,-2.625 0,-1.875 0.98438,-2.9375 0.98437,-1.07813 2.5,-1.07813 1.6875,0 2.67187,1.125 0.98438,1.10938 0.9375,3.42188 h -5.03125 q 0.0156,0.89062 0.48438,1.39062 0.46875,0.5 1.15625,0.5 0.46875,0 0.78125,-0.25 0.32812,-0.26562 0.5,-0.84375 z m 0.10937,-2.03125 q -0.0156,-0.875 -0.45312,-1.32812 -0.42188,-0.45313 -1.03125,-0.45313 -0.67188,0 -1.09375,0.48438 -0.42188,0.46875 -0.42188,1.29687 z m 2.93234,2.28125 2.01563,-0.29687 q 0.125,0.57812 0.51562,0.89062 0.40625,0.29688 1.10938,0.29688 0.78125,0 1.17187,-0.28125 0.26563,-0.20313 0.26563,-0.54688 0,-0.21875 -0.14063,-0.375 -0.15625,-0.14062 -0.67187,-0.26562 -2.4375,-0.53125 -3.07813,-0.98438 -0.90625,-0.60937 -0.90625,-1.70312 0,-0.98438 0.78125,-1.65625 0.78125,-0.67188 2.42188,-0.67188 1.54687,0 2.3125,0.51563 0.76562,0.5 1.04687,1.48437 l -1.90625,0.35938 q -0.10937,-0.45313 -0.45312,-0.6875 -0.34375,-0.23438 -0.96875,-0.23438 -0.79688,0 -1.14063,0.21875 -0.23437,0.15625 -0.23437,0.40625 0,0.21875 0.20312,0.375 0.28125,0.20313 1.875,0.5625 1.60938,0.35938 2.25,0.89063 0.625,0.54687 0.625,1.5 0,1.04687 -0.875,1.79687 -0.85937,0.75 -2.57812,0.75 -1.54688,0 -2.45313,-0.625 -0.90625,-0.64062 -1.1875,-1.71875 z m 12.33863,-5.42187 v 1.59375 h -1.375 v 3.0625 q 0,0.9375 0.0312,1.09375 0.0469,0.14062 0.1875,0.25 0.14062,0.0937 0.34375,0.0937 0.28125,0 0.8125,-0.1875 l 0.17187,1.5625 q -0.70312,0.29687 -1.59375,0.29687 -0.54687,0 -0.98437,-0.17187 -0.42188,-0.1875 -0.64063,-0.46875 -0.20312,-0.29688 -0.28125,-0.79688 -0.0625,-0.35937 -0.0625,-1.42187 v -3.3125 h -0.92187 v -1.59375 h 0.92187 v -1.51563 l 2.01563,-1.17187 v 2.6875 z"
       id="path17"
       inkscape:connector-curvature="0"
       style="fill:#000000;fill-rule:nonzero" />
    <path
       d="m 321.96933,470.88663 v -1.45312 h 1.46875 v 1.45312 z m 0,6.14063 v -1.46875 h 1.46875 v 1.46875 z"
       id="path19"
       inkscape:connector-curvature="0"
       style="fill:#000000;fill-rule:nonzero" />
    <path
       d="m 238.55511,489.85538 q 0,-1.85937 0.375,-2.98437 0.39063,-1.14063 1.14063,-1.75 0.76562,-0.625 1.90625,-0.625 0.84375,0 1.46875,0.34375 0.64062,0.32812 1.0625,0.96875 0.42187,0.64062 0.65625,1.5625 0.23437,0.92187 0.23437,2.48437 0,1.84375 -0.39062,2.98438 -0.375,1.125 -1.125,1.75 -0.75,0.60937 -1.90625,0.60937 -1.51563,0 -2.39063,-1.07812 -1.03125,-1.3125 -1.03125,-4.26563 z m 1.32813,0 q 0,2.57813 0.59375,3.4375 0.60937,0.85938 1.5,0.85938 0.89062,0 1.48437,-0.85938 0.60938,-0.85937 0.60938,-3.4375 0,-2.59375 -0.60938,-3.4375 -0.59375,-0.85937 -1.5,-0.85937 -0.89062,0 -1.42187,0.75 -0.65625,0.96875 -0.65625,3.54687 z m 6.82298,0 q 0,-1.85937 0.375,-2.98437 0.39062,-1.14063 1.14062,-1.75 0.76563,-0.625 1.90625,-0.625 0.84375,0 1.46875,0.34375 0.64063,0.32812 1.0625,0.96875 0.42188,0.64062 0.65625,1.5625 0.23438,0.92187 0.23438,2.48437 0,1.84375 -0.39063,2.98438 -0.375,1.125 -1.125,1.75 -0.75,0.60937 -1.90625,0.60937 -1.51562,0 -2.39062,-1.07812 -1.03125,-1.3125 -1.03125,-4.26563 z m 1.32812,0 q 0,2.57813 0.59375,3.4375 0.60938,0.85938 1.5,0.85938 0.89063,0 1.48438,-0.85938 0.60937,-0.85937 0.60937,-3.4375 0,-2.59375 -0.60937,-3.4375 -0.59375,-0.85937 -1.5,-0.85937 -0.89063,0 -1.42188,0.75 -0.65625,0.96875 -0.65625,3.54687 z m 10.89498,0 q 0,-1.85937 0.375,-2.98437 0.39062,-1.14063 1.14062,-1.75 0.76563,-0.625 1.90625,-0.625 0.84375,0 1.46875,0.34375 0.64063,0.32812 1.0625,0.96875 0.42188,0.64062 0.65625,1.5625 0.23438,0.92187 0.23438,2.48437 0,1.84375 -0.39063,2.98438 -0.375,1.125 -1.125,1.75 -0.75,0.60937 -1.90625,0.60937 -1.51562,0 -2.39062,-1.07812 -1.03125,-1.3125 -1.03125,-4.26563 z m 1.32812,0 q 0,2.57813 0.59375,3.4375 0.60938,0.85938 1.5,0.85938 0.89063,0 1.48438,-0.85938 0.60937,-0.85937 0.60937,-3.4375 0,-2.59375 -0.60937,-3.4375 -0.59375,-0.85937 -1.5,-0.85937 -0.89063,0 -1.42188,0.75 -0.65625,0.96875 -0.65625,3.54687 z m 6.82297,0 q 0,-1.85937 0.375,-2.98437 0.39062,-1.14063 1.14062,-1.75 0.76563,-0.625 1.90625,-0.625 0.84375,0 1.46875,0.34375 0.64063,0.32812 1.0625,0.96875 0.42188,0.64062 0.65625,1.5625 0.23438,0.92187 0.23438,2.48437 0,1.84375 -0.39063,2.98438 -0.375,1.125 -1.125,1.75 -0.75,0.60937 -1.90625,0.60937 -1.51562,0 -2.39062,-1.07812 -1.03125,-1.3125 -1.03125,-4.26563 z m 1.32812,0 q 0,2.57813 0.59375,3.4375 0.60938,0.85938 1.5,0.85938 0.89063,0 1.48438,-0.85938 0.60937,-0.85937 0.60937,-3.4375 0,-2.59375 -0.60937,-3.4375 -0.59375,-0.85937 -1.5,-0.85937 -0.89063,0 -1.42188,0.75 -0.65625,0.96875 -0.65625,3.54687 z m 10.89496,0 q 0,-1.85937 0.375,-2.98437 0.39063,-1.14063 1.14063,-1.75 0.76562,-0.625 1.90625,-0.625 0.84375,0 1.46875,0.34375 0.64062,0.32812 1.0625,0.96875 0.42187,0.64062 0.65625,1.5625 0.23437,0.92187 0.23437,2.48437 0,1.84375 -0.39062,2.98438 -0.375,1.125 -1.125,1.75 -0.75,0.60937 -1.90625,0.60937 -1.51563,0 -2.39063,-1.07812 -1.03125,-1.3125 -1.03125,-4.26563 z m 1.32813,0 q 0,2.57813 0.59375,3.4375 0.60937,0.85938 1.5,0.85938 0.89062,0 1.48437,-0.85938 0.60938,-0.85937 0.60938,-3.4375 0,-2.59375 -0.60938,-3.4375 -0.59375,-0.85937 -1.5,-0.85937 -0.89062,0 -1.42187,0.75 -0.65625,0.96875 -0.65625,3.54687 z m 6.823,0 q 0,-1.85937 0.375,-2.98437 0.39062,-1.14063 1.14062,-1.75 0.76563,-0.625 1.90625,-0.625 0.84375,0 1.46875,0.34375 0.64063,0.32812 1.0625,0.96875 0.42188,0.64062 0.65625,1.5625 0.23438,0.92187 0.23438,2.48437 0,1.84375 -0.39063,2.98438 -0.375,1.125 -1.125,1.75 -0.75,0.60937 -1.90625,0.60937 -1.51562,0 -2.39062,-1.07812 -1.03125,-1.3125 -1.03125,-4.26563 z m 1.32812,0 q 0,2.57813 0.59375,3.4375 0.60938,0.85938 1.5,0.85938 0.89063,0 1.48438,-0.85938 0.60937,-0.85937 0.60937,-3.4375 0,-2.59375 -0.60937,-3.4375 -0.59375,-0.85937 -1.5,-0.85937 -0.89063,0 -1.42188,0.75 -0.65625,0.96875 -0.65625,3.54687 z m 10.89496,0 q 0,-1.85937 0.375,-2.98437 0.39062,-1.14063 1.14062,-1.75 0.76563,-0.625 1.90625,-0.625 0.84375,0 1.46875,0.34375 0.64063,0.32812 1.0625,0.96875 0.42188,0.64062 0.65625,1.5625 0.23438,0.92187 0.23438,2.48437 0,1.84375 -0.39063,2.98438 -0.375,1.125 -1.125,1.75 -0.75,0.60937 -1.90625,0.60937 -1.51562,0 -2.39062,-1.07812 -1.03125,-1.3125 -1.03125,-4.26563 z m 1.32812,0 q 0,2.57813 0.59375,3.4375 0.60938,0.85938 1.5,0.85938 0.89063,0 1.48438,-0.85938 0.60937,-0.85937 0.60937,-3.4375 0,-2.59375 -0.60937,-3.4375 -0.59375,-0.85937 -1.5,-0.85937 -0.89063,0 -1.42188,0.75 -0.65625,0.96875 -0.65625,3.54687 z m 6.82297,0 q 0,-1.85937 0.375,-2.98437 0.39063,-1.14063 1.14063,-1.75 0.76562,-0.625 1.90625,-0.625 0.84375,0 1.46875,0.34375 0.64062,0.32812 1.0625,0.96875 0.42187,0.64062 0.65625,1.5625 0.23437,0.92187 0.23437,2.48437 0,1.84375 -0.39062,2.98438 -0.375,1.125 -1.125,1.75 -0.75,0.60937 -1.90625,0.60937 -1.51563,0 -2.39063,-1.07812 -1.03125,-1.3125 -1.03125,-4.26563 z m 1.32813,0 q 0,2.57813 0.59375,3.4375 0.60937,0.85938 1.5,0.85938 0.89062,0 1.48437,-0.85938 0.60938,-0.85937 0.60938,-3.4375 0,-2.59375 -0.60938,-3.4375 -0.59375,-0.85937 -1.5,-0.85937 -0.89062,0 -1.42187,0.75 -0.65625,0.96875 -0.65625,3.54687 z"
       id="path21"
       inkscape:connector-curvature="0"
       style="fill:#000000;fill-rule:nonzero" />
    <path
       d="m 382.93832,557.25195 h 175.3071 v 61.66931 h -175.3071 z"
       id="path23"
       inkscape:connector-curvature="0"
       style="fill:#fce5cd;fill-rule:evenodd" />
    <path
       d="m 382.93832,557.25195 h 175.3071 v 61.66931 h -175.3071 z"
       id="path25"
       inkscape:connector-curvature="0"
       style="fill-rule:evenodd;stroke:#000000;stroke-width:1;stroke-linecap:butt;stroke-linejoin:round" />
    <path
       d="m 400.92905,581.6472 h 5.34375 q 1.59375,0 2.35938,0.14062 0.78125,0.125 1.39062,0.54688 0.625,0.42187 1.03125,1.125 0.40625,0.6875 0.40625,1.54687 0,0.9375 -0.5,1.73438 -0.5,0.78125 -1.375,1.17187 1.21875,0.35938 1.875,1.21875 0.65625,0.84375 0.65625,2 0,0.92188 -0.42187,1.78125 -0.42188,0.85938 -1.15625,1.375 -0.73438,0.51563 -1.79688,0.625 -0.6875,0.0781 -3.26562,0.0937 h -4.54688 z m 2.70313,2.23437 v 3.07813 h 1.76562 q 1.57813,0 1.95313,-0.0469 0.70312,-0.0781 1.09375,-0.46875 0.40625,-0.40625 0.40625,-1.04687 0,-0.625 -0.34375,-1 -0.34375,-0.39063 -1.01563,-0.48438 -0.40625,-0.0312 -2.3125,-0.0312 z m 0,5.29688 v 3.57812 h 2.5 q 1.45312,0 1.84375,-0.0781 0.60937,-0.10938 0.98437,-0.53125 0.375,-0.42188 0.375,-1.14063 0,-0.59375 -0.29687,-1.01562 -0.28125,-0.42188 -0.84375,-0.60938 -0.54688,-0.20312 -2.39063,-0.20312 z m 12.66043,-0.89063 -2.32813,-0.42187 q 0.40625,-1.40625 1.35938,-2.07813 0.95312,-0.67187 2.84375,-0.67187 1.70312,0 2.54687,0.40625 0.84375,0.40625 1.17188,1.03125 0.34375,0.625 0.34375,2.28125 l -0.0156,3 q 0,1.26562 0.10938,1.875 0.125,0.60937 0.46875,1.29687 h -2.53125 q -0.10938,-0.25 -0.25,-0.75 -0.0625,-0.23437 -0.0937,-0.3125 -0.65625,0.64063 -1.40625,0.96875 -0.73438,0.3125 -1.59375,0.3125 -1.48438,0 -2.34375,-0.8125 -0.85938,-0.8125 -0.85938,-2.04687 0,-0.82813 0.39063,-1.46875 0.39062,-0.64063 1.09375,-0.96875 0.70312,-0.34375 2.03125,-0.60938 1.79687,-0.32812 2.48437,-0.625 v -0.25 q 0,-0.75 -0.35937,-1.0625 -0.35938,-0.3125 -1.375,-0.3125 -0.6875,0 -1.07813,0.28125 -0.375,0.26563 -0.60937,0.9375 z m 3.42187,2.07813 q -0.48437,0.15625 -1.5625,0.39062 -1.0625,0.21875 -1.39062,0.4375 -0.5,0.35938 -0.5,0.90625 0,0.53125 0.40625,0.9375 0.40625,0.39063 1.01562,0.39063 0.70313,0 1.32813,-0.46875 0.46875,-0.34375 0.60937,-0.84375 0.0937,-0.32813 0.0937,-1.25 z m 13.92261,4.64062 h -2.39063 v -1.42187 q -0.59375,0.82812 -1.40625,1.23437 -0.79687,0.40625 -1.60937,0.40625 -1.67188,0 -2.85938,-1.34375 -1.1875,-1.34375 -1.1875,-3.75 0,-2.45312 1.15625,-3.73437 1.15625,-1.28125 2.92188,-1.28125 1.625,0 2.8125,1.34375 v -4.8125 h 2.5625 z m -6.84375,-5.04687 q 0,1.54687 0.4375,2.23437 0.60937,1.01563 1.71875,1.01563 0.89062,0 1.5,-0.75 0.625,-0.76563 0.625,-2.25 0,-1.67188 -0.60938,-2.40625 -0.59375,-0.73438 -1.53125,-0.73438 -0.90625,0 -1.53125,0.73438 -0.60937,0.71875 -0.60937,2.15625 z"
       id="path27"
       inkscape:connector-curvature="0"
       style="fill:#000000;fill-rule:nonzero" />
    <path
       d="m 441.43512,595.0066 v -13.35937 h 5.04687 q 1.32813,0 2.03125,0.125 0.96875,0.17187 1.64063,0.64062 0.67187,0.45313 1.07812,1.28125 0.40625,0.82813 0.40625,1.82813 0,1.70312 -1.09375,2.89062 -1.07812,1.17188 -3.92187,1.17188 h -3.42188 v 5.42187 z m 1.76562,-7 h 3.45313 q 1.71875,0 2.4375,-0.64062 0.71875,-0.64063 0.71875,-1.79688 0,-0.84375 -0.42188,-1.4375 -0.42187,-0.59375 -1.125,-0.78125 -0.4375,-0.125 -1.64062,-0.125 h -3.42188 z m 20.2092,2.3125 1.76563,0.45313 q -0.5625,2.17187 -2,3.32812 -1.4375,1.14063 -3.53125,1.14063 -2.15625,0 -3.51563,-0.875 -1.34375,-0.89063 -2.0625,-2.54688 -0.70312,-1.67187 -0.70312,-3.59375 0,-2.07812 0.79687,-3.625 0.79688,-1.5625 2.26563,-2.35937 1.48437,-0.8125 3.25,-0.8125 2,0 3.35937,1.01562 1.375,1.01563 1.90625,2.875 l -1.73437,0.40625 q -0.46875,-1.45312 -1.35938,-2.10937 -0.875,-0.67188 -2.20312,-0.67188 -1.54688,0 -2.57813,0.73438 -1.03125,0.73437 -1.45312,1.98437 -0.42188,1.23438 -0.42188,2.5625 0,1.70313 0.5,2.96875 0.5,1.26563 1.54688,1.90625 1.04687,0.625 2.26562,0.625 1.48438,0 2.51563,-0.85937 1.03125,-0.85938 1.39062,-2.54688 z m 3.97293,4.6875 v -13.35937 h 5.92188 q 1.78125,0 2.70312,0.35937 0.9375,0.35938 1.48438,1.28125 0.5625,0.90625 0.5625,2.01563 0,1.40625 -0.92188,2.39062 -0.92187,0.96875 -2.84375,1.23438 0.70313,0.34375 1.07813,0.67187 0.76562,0.70313 1.45312,1.76563 l 2.32813,3.64062 h -2.21875 l -1.76563,-2.78125 q -0.78125,-1.20312 -1.28125,-1.82812 -0.5,-0.64063 -0.90625,-0.89063 -0.39062,-0.26562 -0.79687,-0.35937 -0.29688,-0.0781 -0.98438,-0.0781 h -2.04687 v 5.9375 z m 1.76563,-7.45312 h 3.79687 q 1.21875,0 1.89063,-0.25 0.6875,-0.26563 1.04687,-0.8125 0.35938,-0.54688 0.35938,-1.1875 0,-0.95313 -0.6875,-1.5625 -0.6875,-0.60938 -2.1875,-0.60938 h -4.21875 z m 20.67187,7.45312 -5.17187,-13.35937 h 1.92187 l 3.46875,9.70312 q 0.42188,1.17188 0.70313,2.1875 0.3125,-1.09375 0.71875,-2.1875 l 3.60937,-9.70312 h 1.79688 l -5.23438,13.35937 z m 14.74045,-1.1875 q -0.92187,0.76563 -1.76562,1.09375 -0.82813,0.3125 -1.79688,0.3125 -1.59375,0 -2.45312,-0.78125 -0.85938,-0.78125 -0.85938,-1.98437 0,-0.71875 0.32813,-1.29688 0.32812,-0.59375 0.84375,-0.9375 0.53125,-0.35937 1.1875,-0.54687 0.46875,-0.125 1.45312,-0.25 1.98438,-0.23438 2.92188,-0.5625 0.0156,-0.34375 0.0156,-0.42188 0,-1 -0.46875,-1.42187 -0.625,-0.54688 -1.875,-0.54688 -1.15625,0 -1.70312,0.40625 -0.54688,0.40625 -0.8125,1.42188 l -1.60938,-0.21875 q 0.21875,-1.01563 0.71875,-1.64063 0.5,-0.64062 1.45313,-0.98437 0.95312,-0.34375 2.1875,-0.34375 1.25,0 2.01562,0.29687 0.78125,0.28125 1.14063,0.73438 0.375,0.4375 0.51562,1.10937 0.0781,0.42188 0.0781,1.51563 v 2.1875 q 0,2.28125 0.10937,2.89062 0.10938,0.59375 0.40625,1.15625 h -1.70312 q -0.26563,-0.51562 -0.32813,-1.1875 z m -0.14062,-3.67187 q -0.89063,0.375 -2.67188,0.625 -1.01562,0.14062 -1.4375,0.32812 -0.42187,0.1875 -0.65625,0.53125 -0.21875,0.34375 -0.21875,0.78125 0,0.65625 0.5,1.09375 0.5,0.4375 1.45313,0.4375 0.9375,0 1.67187,-0.40625 0.75,-0.42187 1.09375,-1.14062 0.26563,-0.5625 0.26563,-1.64063 z m 4.15698,4.85937 v -13.35937 h 1.64062 v 13.35937 z m 10.51981,0 v -1.42187 q -1.125,1.64062 -3.0625,1.64062 -0.85938,0 -1.60938,-0.32812 -0.73437,-0.32813 -1.09375,-0.82813 -0.35937,-0.5 -0.5,-1.21875 -0.10937,-0.46875 -0.10937,-1.53125 v -5.98437 h 1.64062 v 5.35937 q 0,1.28125 0.10938,1.73438 0.15625,0.64062 0.65625,1.01562 0.5,0.375 1.23437,0.375 0.73438,0 1.375,-0.375 0.65625,-0.39062 0.92188,-1.03125 0.26562,-0.65625 0.26562,-1.89062 v -5.1875 h 1.64063 v 9.67187 z m 10.6726,-3.10937 1.6875,0.20312 q -0.40625,1.48438 -1.48437,2.3125 -1.07813,0.8125 -2.76563,0.8125 -2.125,0 -3.375,-1.29687 -1.23437,-1.3125 -1.23437,-3.67188 0,-2.45312 1.25,-3.79687 1.26562,-1.34375 3.26562,-1.34375 1.9375,0 3.15625,1.32812 1.23438,1.3125 1.23438,3.70313 0,0.15625 0,0.4375 h -7.21875 q 0.0937,1.59375 0.90625,2.45312 0.8125,0.84375 2.01562,0.84375 0.90625,0 1.54688,-0.46875 0.64062,-0.48437 1.01562,-1.51562 z m -5.39062,-2.65625 h 5.40625 q -0.10938,-1.21875 -0.625,-1.82813 -0.78125,-0.95312 -2.03125,-0.95312 -1.125,0 -1.90625,0.76562 -0.76563,0.75 -0.84375,2.01563 z m 8.4851,2.875 1.625,-0.25 q 0.125,0.96875 0.75,1.5 0.625,0.51562 1.75,0.51562 1.125,0 1.67188,-0.45312 0.54687,-0.46875 0.54687,-1.09375 0,-0.54688 -0.48437,-0.875 -0.32813,-0.21875 -1.67188,-0.54688 -1.8125,-0.46875 -2.51562,-0.79687 -0.6875,-0.32813 -1.04688,-0.90625 -0.35937,-0.59375 -0.35937,-1.3125 0,-0.64063 0.29687,-1.1875 0.29688,-0.5625 0.8125,-0.92188 0.375,-0.28125 1.03125,-0.46875 0.67188,-0.20312 1.42188,-0.20312 1.14062,0 2,0.32812 0.85937,0.32813 1.26562,0.89063 0.42188,0.5625 0.57813,1.5 l -1.60938,0.21875 q -0.10937,-0.75 -0.64062,-1.17188 -0.51563,-0.42187 -1.46875,-0.42187 -1.14063,0 -1.625,0.375 -0.46875,0.375 -0.46875,0.875 0,0.3125 0.1875,0.57812 0.20312,0.26563 0.64062,0.4375 0.23438,0.0937 1.4375,0.42188 1.75,0.45312 2.4375,0.75 0.6875,0.29687 1.07813,0.85937 0.39062,0.5625 0.39062,1.40625 0,0.82813 -0.48437,1.54688 -0.46875,0.71875 -1.375,1.125 -0.90625,0.39062 -2.04688,0.39062 -1.875,0 -2.875,-0.78125 -0.98437,-0.78125 -1.25,-2.32812 z"
       id="path29"
       inkscape:connector-curvature="0"
       style="fill:#000000;fill-rule:nonzero" />
    <path
       d="m 382.93832,419.8294 h 175.3071 v 61.66928 h -175.3071 z"
       id="path31"
       inkscape:connector-curvature="0"
       style="fill:#d9d2e9;fill-rule:evenodd" />
    <path
       d="m 382.93832,419.8294 h 175.3071 v 61.66928 h -175.3071 z"
       id="path33"
       inkscape:connector-curvature="0"
       style="fill-rule:evenodd;stroke:#000000;stroke-width:1;stroke-linecap:butt;stroke-linejoin:round" />
    <path
       d="M 400.7924,457.58405 V 445.8028 h -4.40625 v -1.57813 h 10.57812 v 1.57813 h -4.40625 v 11.78125 z m 7.98975,0 v -13.35938 h 5.04687 q 1.32813,0 2.03125,0.125 0.96875,0.17188 1.64063,0.64063 0.67187,0.45312 1.07812,1.28125 0.40625,0.82812 0.40625,1.82812 0,1.70313 -1.09375,2.89063 -1.07812,1.17187 -3.92187,1.17187 h -3.42188 v 5.42188 z m 1.76562,-7 h 3.45313 q 1.71875,0 2.4375,-0.64063 0.71875,-0.64062 0.71875,-1.79687 0,-0.84375 -0.42188,-1.4375 -0.42187,-0.59375 -1.125,-0.78125 -0.4375,-0.125 -1.64062,-0.125 h -3.42188 z m 10.63107,7 v -13.35938 h 2.65625 l 3.15625,9.45313 q 0.4375,1.32812 0.64063,1.98437 0.23437,-0.73437 0.70312,-2.14062 l 3.20313,-9.29688 h 2.375 v 13.35938 h -1.70313 v -11.17188 l -3.875,11.17188 h -1.59375 l -3.85937,-11.375 v 11.375 z m 23.54081,-1.57813 v 1.57813 h -8.82813 q -0.0156,-0.59375 0.1875,-1.14063 0.34375,-0.90625 1.07813,-1.78125 0.75,-0.875 2.15625,-2.01562 2.17187,-1.78125 2.9375,-2.82813 0.76562,-1.04687 0.76562,-1.96875 0,-0.98437 -0.70312,-1.64062 -0.6875,-0.67188 -1.8125,-0.67188 -1.1875,0 -1.90625,0.71875 -0.70313,0.70313 -0.70313,1.95313 l -1.6875,-0.17188 q 0.17188,-1.89062 1.29688,-2.875 1.14062,-0.98437 3.03125,-0.98437 1.92187,0 3.04687,1.0625 1.125,1.0625 1.125,2.64062 0,0.79688 -0.32812,1.57813 -0.32813,0.78125 -1.09375,1.64062 -0.75,0.84375 -2.53125,2.34375 -1.46875,1.23438 -1.89063,1.6875 -0.42187,0.4375 -0.6875,0.875 z m 0.70382,5.28125 v -1.1875 h 10.85938 v 1.1875 z m 12.09448,-3.70312 v -13.35938 h 5.04688 q 1.32812,0 2.03125,0.125 0.96875,0.17188 1.64062,0.64063 0.67188,0.45312 1.07813,1.28125 0.40625,0.82812 0.40625,1.82812 0,1.70313 -1.09375,2.89063 -1.07813,1.17187 -3.92188,1.17187 h -3.42187 v 5.42188 z m 1.76563,-7 h 3.45312 q 1.71875,0 2.4375,-0.64063 0.71875,-0.64062 0.71875,-1.79687 0,-0.84375 -0.42187,-1.4375 -0.42188,-0.59375 -1.125,-0.78125 -0.4375,-0.125 -1.64063,-0.125 h -3.42187 z m 9.86545,2.15625 q 0,-2.6875 1.48437,-3.96875 1.25,-1.07813 3.04688,-1.07813 2,0 3.26562,1.3125 1.26563,1.29688 1.26563,3.60938 0,1.85937 -0.5625,2.9375 -0.5625,1.0625 -1.64063,1.65625 -1.0625,0.59375 -2.32812,0.59375 -2.03125,0 -3.28125,-1.29688 -1.25,-1.3125 -1.25,-3.76562 z m 1.6875,0 q 0,1.85937 0.79687,2.79687 0.8125,0.92188 2.04688,0.92188 1.21875,0 2.03125,-0.92188 0.8125,-0.9375 0.8125,-2.84375 0,-1.79687 -0.8125,-2.71875 -0.8125,-0.92187 -2.03125,-0.92187 -1.23438,0 -2.04688,0.92187 -0.79687,0.90625 -0.79687,2.76563 z m 9.2507,4.84375 v -13.35938 h 1.64062 v 13.35938 z m 4.19171,-11.46875 v -1.89063 h 1.64063 v 1.89063 z m 0,11.46875 v -9.67188 h 1.64063 v 9.67188 z m 10.45731,-3.54688 1.60937,0.21875 q -0.26562,1.65625 -1.35937,2.60938 -1.07813,0.9375 -2.67188,0.9375 -1.98437,0 -3.1875,-1.29688 -1.20312,-1.29687 -1.20312,-3.71875 0,-1.57812 0.51562,-2.75 0.51563,-1.17187 1.57813,-1.75 1.0625,-0.59375 2.3125,-0.59375 1.57812,0 2.57812,0.79688 1,0.79687 1.28125,2.26562 l -1.59375,0.23438 q -0.23437,-0.96875 -0.8125,-1.45313 -0.57812,-0.5 -1.39062,-0.5 -1.23438,0 -2.01563,0.89063 -0.78125,0.89062 -0.78125,2.8125 0,1.95312 0.75,2.84375 0.75,0.875 1.95313,0.875 0.96875,0 1.60937,-0.59375 0.65625,-0.59375 0.82813,-1.82813 z m 2.9375,7.26563 -0.1875,-1.53125 q 0.54687,0.14062 0.9375,0.14062 0.54687,0 0.875,-0.1875 0.32812,-0.17187 0.54687,-0.5 0.15625,-0.25 0.5,-1.21875 0.0469,-0.14062 0.14063,-0.40625 l -3.67188,-9.6875 H 498.58 l 2.01562,5.59375 q 0.39063,1.07813 0.70313,2.25 0.28125,-1.125 0.67187,-2.20312 l 2.07813,-5.64063 h 1.64062 l -3.6875,9.82813 q -0.59375,1.60937 -0.92187,2.20312 -0.4375,0.8125 -1,1.1875 -0.5625,0.375 -1.34375,0.375 -0.48438,0 -1.0625,-0.20312 z m 9.60937,-3.71875 v -13.35938 h 5.04685 q 1.32812,0 2.03125,0.125 0.96875,0.17188 1.64062,0.64063 0.67188,0.45312 1.07813,1.28125 0.40625,0.82812 0.40625,1.82812 0,1.70313 -1.09375,2.89063 -1.07813,1.17187 -3.92188,1.17187 h -3.42184 v 5.42188 z m 1.76563,-7 h 3.45309 q 1.71875,0 2.4375,-0.64063 0.71875,-0.64062 0.71875,-1.79687 0,-0.84375 -0.42187,-1.4375 -0.42188,-0.59375 -1.125,-0.78125 -0.4375,-0.125 -1.64063,-0.125 h -3.42184 z m 20.2092,2.3125 1.76562,0.45312 q -0.5625,2.17188 -2,3.32813 -1.4375,1.14062 -3.53125,1.14062 -2.15625,0 -3.51562,-0.875 -1.34375,-0.89062 -2.0625,-2.54687 -0.70313,-1.67188 -0.70313,-3.59375 0,-2.07813 0.79688,-3.625 0.79687,-1.5625 2.26562,-2.35938 1.48438,-0.8125 3.25,-0.8125 2,0 3.35938,1.01563 1.375,1.01562 1.90625,2.875 l -1.73438,0.40625 q -0.46875,-1.45313 -1.35937,-2.10938 -0.875,-0.67187 -2.20313,-0.67187 -1.54687,0 -2.57812,0.73437 -1.03125,0.73438 -1.45313,1.98438 -0.42187,1.23437 -0.42187,2.5625 0,1.70312 0.5,2.96875 0.5,1.26562 1.54687,1.90625 1.04688,0.625 2.26563,0.625 1.48437,0 2.51562,-0.85938 1.03125,-0.85937 1.39063,-2.54687 z m 3.97296,4.6875 v -13.35938 h 5.92187 q 1.78125,0 2.70313,0.35938 0.9375,0.35937 1.48437,1.28125 0.5625,0.90625 0.5625,2.01562 0,1.40625 -0.92187,2.39063 -0.92188,0.96875 -2.84375,1.23437 0.70312,0.34375 1.07812,0.67188 0.76563,0.70312 1.45313,1.76562 l 2.32812,3.64063 h -2.21875 l -1.76562,-2.78125 q -0.78125,-1.20313 -1.28125,-1.82813 -0.5,-0.64062 -0.90625,-0.89062 -0.39063,-0.26563 -0.79688,-0.35938 -0.29687,-0.0781 -0.98437,-0.0781 h -2.04688 v 5.9375 z m 1.76562,-7.45313 h 3.79688 q 1.21875,0 1.89062,-0.25 0.6875,-0.26562 1.04688,-0.8125 0.35937,-0.54687 0.35937,-1.1875 0,-0.95312 -0.6875,-1.5625 -0.6875,-0.60937 -2.1875,-0.60937 h -4.21875 z"
       id="path35"
       inkscape:connector-curvature="0"
       style="fill:#000000;fill-rule:nonzero" />
    <path
       d="M 12.362205,419.8294 H 170.37796 v 61.66928 H 12.362205 Z"
       id="path37"
       inkscape:connector-curvature="0"
       style="fill:#d9d2e9;fill-rule:evenodd" />
    <path
       d="M 12.362205,419.8294 H 170.37796 v 61.66928 H 12.362205 Z"
       id="path39"
       inkscape:connector-curvature="0"
       style="fill-rule:evenodd;stroke:#000000;stroke-width:1;stroke-linecap:butt;stroke-linejoin:round" />
    <path
       d="M 27.259491,446.58405 V 434.8028 h -4.40625 v -1.57813 h 10.578125 v 1.57813 h -4.40625 v 11.78125 z m 7.989731,0 v -13.35938 h 5.046875 q 1.328125,0 2.03125,0.125 0.96875,0.17188 1.640625,0.64063 0.671875,0.45312 1.078125,1.28125 0.40625,0.82812 0.40625,1.82812 0,1.70313 -1.09375,2.89063 -1.078125,1.17187 -3.921875,1.17187 h -3.421875 v 5.42188 z m 1.765625,-7 h 3.453125 q 1.71875,0 2.4375,-0.64063 0.71875,-0.64062 0.71875,-1.79687 0,-0.84375 -0.421875,-1.4375 -0.421875,-0.59375 -1.125,-0.78125 -0.4375,-0.125 -1.640625,-0.125 h -3.421875 z m 10.631073,7 v -13.35938 h 2.65625 l 3.15625,9.45313 q 0.4375,1.32812 0.640625,1.98437 0.234375,-0.73437 0.703125,-2.14062 l 3.203125,-9.29688 h 2.375 v 13.35938 H 58.67717 v -11.17188 l -3.875,11.17188 h -1.59375 l -3.859375,-11.375 v 11.375 z m 23.540802,-1.57813 v 1.57813 h -8.828125 q -0.01563,-0.59375 0.1875,-1.14063 0.34375,-0.90625 1.078125,-1.78125 0.75,-0.875 2.15625,-2.01562 2.171875,-1.78125 2.9375,-2.82813 0.765625,-1.04687 0.765625,-1.96875 0,-0.98437 -0.703125,-1.64062 -0.6875,-0.67188 -1.8125,-0.67188 -1.1875,0 -1.90625,0.71875 -0.703125,0.70313 -0.703125,1.95313 l -1.6875,-0.17188 q 0.171875,-1.89062 1.296875,-2.875 1.140625,-0.98437 3.03125,-0.98437 1.921875,0 3.046875,1.0625 1.125,1.0625 1.125,2.64062 0,0.79688 -0.328125,1.57813 -0.328125,0.78125 -1.09375,1.64062 -0.75,0.84375 -2.53125,2.34375 -1.46875,1.23438 -1.890625,1.6875 -0.421875,0.4375 -0.6875,0.875 z m 0.703842,5.28125 v -1.1875 h 10.859375 v 1.1875 z m 11.500717,-8 1.65625,-0.14062 q 0.125,1 0.546875,1.64062 0.4375,0.64063 1.34375,1.04688 0.921875,0.39062 2.0625,0.39062 1,0 1.78125,-0.29687 0.78125,-0.29688 1.15625,-0.8125 0.375,-0.53125 0.375,-1.15625 0,-0.625 -0.375,-1.09375 -0.359375,-0.46875 -1.1875,-0.79688 -0.546875,-0.20312 -2.390625,-0.64062 -1.828125,-0.45313 -2.5625,-0.84375 -0.96875,-0.5 -1.4375,-1.23438 -0.46875,-0.75 -0.46875,-1.67187 0,-1 0.578125,-1.875 0.578125,-0.89063 1.671875,-1.34375 1.109375,-0.45313 2.453125,-0.45313 1.484375,0 2.609375,0.48438 1.140625,0.46875 1.75,1.40625 0.609375,0.92187 0.65625,2.09375 l -1.6875,0.125 q -0.140625,-1.26563 -0.9375,-1.90625 -0.78125,-0.65625 -2.3125,-0.65625 -1.609375,0 -2.34375,0.59375 -0.734375,0.59375 -0.734375,1.42187 0,0.71875 0.53125,1.17188 0.5,0.46875 2.65625,0.96875 2.15625,0.48437 2.953125,0.84375 1.171875,0.53125 1.71875,1.35937 0.5625,0.82813 0.5625,1.90625 0,1.0625 -0.609375,2.01563 -0.609375,0.9375 -1.75,1.46875 -1.140625,0.51562 -2.578125,0.51562 -1.8125,0 -3.046875,-0.53125 -1.21875,-0.53125 -1.921875,-1.59375 -0.6875,-1.0625 -0.71875,-2.40625 z m 16.412323,2.82813 0.234376,1.45312 q -0.687501,0.14063 -1.234376,0.14063 -0.890625,0 -1.390625,-0.28125 -0.484375,-0.28125 -0.6875,-0.73438 -0.203125,-0.46875 -0.203125,-1.9375 v -5.57812 h -1.203125 v -1.26563 h 1.203125 v -2.39062 l 1.625,-0.98438 v 3.375 h 1.65625 v 1.26563 h -1.65625 v 5.67187 q 0,0.6875 0.07813,0.89063 0.09375,0.20312 0.28125,0.32812 0.203125,0.10938 0.578125,0.10938 0.265625,0 0.71875,-0.0625 z m 7.917676,0.28125 q -0.92187,0.76562 -1.76562,1.09375 -0.82813,0.3125 -1.79688,0.3125 -1.59375,0 -2.45312,-0.78125 -0.85938,-0.78125 -0.85938,-1.98438 0,-0.71875 0.32813,-1.29687 0.32812,-0.59375 0.84375,-0.9375 0.53125,-0.35938 1.1875,-0.54688 0.46875,-0.125 1.45312,-0.25 1.98438,-0.23437 2.92188,-0.5625 0.0156,-0.34375 0.0156,-0.42187 0,-1 -0.46875,-1.42188 -0.625,-0.54687 -1.875,-0.54687 -1.15625,0 -1.70312,0.40625 -0.54688,0.40625 -0.8125,1.42187 l -1.60938,-0.21875 q 0.21875,-1.01562 0.71875,-1.64062 0.5,-0.64063 1.45313,-0.98438 0.95312,-0.34375 2.1875,-0.34375 1.25,0 2.01562,0.29688 0.78125,0.28125 1.14063,0.73437 0.375,0.4375 0.51562,1.10938 0.0781,0.42187 0.0781,1.51562 v 2.1875 q 0,2.28125 0.10937,2.89063 0.10938,0.59375 0.40625,1.15625 h -1.70312 q -0.26563,-0.51563 -0.32813,-1.1875 z m -0.14062,-3.67188 q -0.89063,0.375 -2.67188,0.625 -1.01562,0.14063 -1.4375,0.32813 -0.42187,0.1875 -0.65625,0.53125 -0.21875,0.34375 -0.21875,0.78125 0,0.65625 0.5,1.09375 0.5,0.4375 1.45313,0.4375 0.9375,0 1.67187,-0.40625 0.75,-0.42188 1.09375,-1.14063 0.26563,-0.5625 0.26563,-1.64062 z m 4.18822,4.85938 v -9.67188 h 1.46875 v 1.46875 q 0.5625,-1.03125 1.03125,-1.35937 0.48437,-0.32813 1.0625,-0.32813 0.82812,0 1.6875,0.53125 l -0.5625,1.51563 q -0.60938,-0.35938 -1.20313,-0.35938 -0.54687,0 -0.96875,0.32813 -0.42187,0.32812 -0.60937,0.89062 -0.28125,0.875 -0.28125,1.92188 v 5.0625 z m 9.80642,-1.46875 0.23438,1.45312 q -0.6875,0.14063 -1.23438,0.14063 -0.89062,0 -1.39062,-0.28125 -0.48438,-0.28125 -0.6875,-0.73438 -0.20313,-0.46875 -0.20313,-1.9375 v -5.57812 h -1.20312 v -1.26563 h 1.20312 v -2.39062 l 1.625,-0.98438 v 3.375 h 1.65625 v 1.26563 h -1.65625 v 5.67187 q 0,0.6875 0.0781,0.89063 0.0937,0.20312 0.28125,0.32812 0.20312,0.10938 0.57812,0.10938 0.26563,0 0.71875,-0.0625 z m 0.33956,1.46875 5.125,-13.35938 h 1.90625 l 5.46875,13.35938 h -2.01563 l -1.54687,-4.04688 h -5.59375 l -1.46875,4.04688 z m 3.85937,-5.48438 h 4.53125 l -1.40625,-3.70312 q -0.625,-1.6875 -0.9375,-2.76563 -0.26562,1.28125 -0.71875,2.54688 z m 16.17793,5.48438 v -1.42188 q -1.125,1.64063 -3.06248,1.64063 -0.85938,0 -1.60938,-0.32813 -0.73437,-0.32812 -1.09375,-0.82812 -0.35937,-0.5 -0.5,-1.21875 -0.10937,-0.46875 -0.10937,-1.53125 v -5.98438 h 1.64062 v 5.35938 q 0,1.28125 0.10938,1.73437 0.15625,0.64063 0.65625,1.01563 0.5,0.375 1.23437,0.375 0.73438,0 1.37499,-0.375 0.65625,-0.39063 0.92187,-1.03125 0.26563,-0.65625 0.26563,-1.89063 v -5.1875 h 1.64062 v 9.67188 z m 7.62574,-1.46875 0.23437,1.45312 q -0.6875,0.14063 -1.23437,0.14063 -0.89063,0 -1.39063,-0.28125 -0.48437,-0.28125 -0.6875,-0.73438 -0.20312,-0.46875 -0.20312,-1.9375 v -5.57812 h -1.20313 v -1.26563 h 1.20313 v -2.39062 l 1.625,-0.98438 v 3.375 h 1.65625 v 1.26563 h -1.65625 v 5.67187 q 0,0.6875 0.0781,0.89063 0.0937,0.20312 0.28125,0.32812 0.20313,0.10938 0.57813,0.10938 0.26562,0 0.71875,-0.0625 z m 1.60516,1.46875 v -13.35938 h 1.64062 v 4.79688 q 1.14063,-1.32813 2.89063,-1.32813 1.07812,0 1.85937,0.42188 0.79688,0.42187 1.14063,1.17187 0.34375,0.75 0.34375,2.17188 v 6.125 h -1.64063 v -6.125 q 0,-1.23438 -0.53125,-1.79688 -0.53125,-0.5625 -1.51562,-0.5625 -0.71875,0 -1.35938,0.39063 -0.64062,0.375 -0.92187,1.01562 -0.26563,0.64063 -0.26563,1.78125 v 5.29688 z"
       id="path41"
       inkscape:connector-curvature="0"
       style="fill:#000000;fill-rule:nonzero" />
    <path
       d="m 59.02793,464.28717 1.65625,-0.14063 q 0.125,1 0.546875,1.64063 0.4375,0.64062 1.34375,1.04687 0.921875,0.39063 2.0625,0.39063 1,0 1.78125,-0.29688 0.78125,-0.29687 1.15625,-0.8125 0.375,-0.53125 0.375,-1.15625 0,-0.625 -0.375,-1.09375 -0.359375,-0.46875 -1.1875,-0.79687 -0.546875,-0.20313 -2.390625,-0.64063 -1.828125,-0.45312 -2.5625,-0.84375 -0.96875,-0.5 -1.4375,-1.23437 -0.46875,-0.75 -0.46875,-1.67188 0,-1 0.578125,-1.875 0.578125,-0.89062 1.671875,-1.34375 1.109375,-0.45312 2.453125,-0.45312 1.484375,0 2.609375,0.48437 1.140625,0.46875 1.75,1.40625 0.609375,0.92188 0.65625,2.09375 l -1.6875,0.125 q -0.140625,-1.26562 -0.9375,-1.90625 -0.78125,-0.65625 -2.3125,-0.65625 -1.609375,0 -2.34375,0.59375 -0.734375,0.59375 -0.734375,1.42188 0,0.71875 0.53125,1.17187 0.5,0.46875 2.65625,0.96875 2.15625,0.48438 2.953125,0.84375 1.171875,0.53125 1.71875,1.35938 0.5625,0.82812 0.5625,1.90625 0,1.0625 -0.609375,2.01562 -0.609375,0.9375 -1.75,1.46875 -1.140625,0.51563 -2.578125,0.51563 -1.8125,0 -3.046875,-0.53125 -1.21875,-0.53125 -1.921875,-1.59375 -0.6875,-1.0625 -0.71875,-2.40625 z m 19.459198,1.1875 1.6875,0.20312 q -0.40625,1.48438 -1.484375,2.3125 -1.078125,0.8125 -2.765625,0.8125 -2.125,0 -3.375,-1.29687 -1.234375,-1.3125 -1.234375,-3.67188 0,-2.45312 1.25,-3.79687 1.265625,-1.34375 3.265625,-1.34375 1.9375,0 3.15625,1.32812 1.234375,1.3125 1.234375,3.70313 0,0.15625 0,0.4375 h -7.21875 q 0.09375,1.59375 0.90625,2.45312 0.8125,0.84375 2.015625,0.84375 0.90625,0 1.546875,-0.46875 0.640625,-0.48437 1.015625,-1.51562 z m -5.390625,-2.65625 h 5.40625 q -0.109375,-1.21875 -0.625,-1.82813 -0.78125,-0.95312 -2.03125,-0.95312 -1.125,0 -1.90625,0.76562 -0.765625,0.75 -0.84375,2.01563 z m 8.485092,2.875 1.625,-0.25 q 0.125,0.96875 0.75,1.5 0.625,0.51562 1.75,0.51562 1.125,0 1.671875,-0.45312 0.546875,-0.46875 0.546875,-1.09375 0,-0.54688 -0.484375,-0.875 -0.328125,-0.21875 -1.671875,-0.54688 -1.8125,-0.46875 -2.515625,-0.79687 -0.6875,-0.32813 -1.046875,-0.90625 -0.359375,-0.59375 -0.359375,-1.3125 0,-0.64063 0.296875,-1.1875 0.296875,-0.5625 0.8125,-0.92188 0.375,-0.28125 1.03125,-0.46875 0.671875,-0.20312 1.421875,-0.20312 1.140625,0 2,0.32812 0.859375,0.32813 1.265625,0.89063 0.421875,0.5625 0.578125,1.5 l -1.609375,0.21875 q -0.109375,-0.75 -0.640625,-1.17188 -0.515625,-0.42187 -1.46875,-0.42187 -1.140625,0 -1.625,0.375 -0.46875,0.375 -0.46875,0.875 0,0.3125 0.1875,0.57812 0.203125,0.26563 0.640625,0.4375 0.234375,0.0937 1.4375,0.42188 1.75,0.45312 2.4375,0.75 0.6875,0.29687 1.078125,0.85937 0.390625,0.5625 0.390625,1.40625 0,0.82813 -0.484375,1.54688 -0.46875,0.71875 -1.375,1.125 -0.90625,0.39062 -2.046875,0.39062 -1.875,0 -2.875,-0.78125 -0.984375,-0.78125 -1.25,-2.32812 z m 9.328125,0 1.625,-0.25 q 0.125,0.96875 0.75,1.5 0.625,0.51562 1.75,0.51562 1.125,0 1.671875,-0.45312 0.546875,-0.46875 0.546875,-1.09375 0,-0.54688 -0.484375,-0.875 -0.328125,-0.21875 -1.671875,-0.54688 -1.8125,-0.46875 -2.515625,-0.79687 -0.6875,-0.32813 -1.046875,-0.90625 -0.359375,-0.59375 -0.359375,-1.3125 0,-0.64063 0.296875,-1.1875 0.296875,-0.5625 0.8125,-0.92188 0.375,-0.28125 1.03125,-0.46875 0.671875,-0.20312 1.421875,-0.20312 1.140625,0 2,0.32812 0.859375,0.32813 1.265625,0.89063 0.421875,0.5625 0.578125,1.5 l -1.609375,0.21875 q -0.109375,-0.75 -0.640625,-1.17188 -0.515625,-0.42187 -1.46875,-0.42187 -1.140625,0 -1.625,0.375 -0.46875,0.375 -0.46875,0.875 0,0.3125 0.1875,0.57812 0.203125,0.26563 0.640625,0.4375 0.234375,0.0937 1.4375,0.42188 1.75,0.45312 2.4375,0.75 0.6875,0.29687 1.078125,0.85937 0.390625,0.5625 0.390625,1.40625 0,0.82813 -0.484375,1.54688 -0.46875,0.71875 -1.375,1.125 -0.90625,0.39062 -2.046875,0.39062 -1.875,0 -2.875,-0.78125 -0.984375,-0.78125 -1.25,-2.32812 z m 9.98437,-8.57813 v -1.89062 h 1.64063 v 1.89062 z m 0,11.46875 v -9.67187 h 1.64063 v 9.67187 z m 3.53545,-4.84375 q 0,-2.6875 1.48438,-3.96875 1.25,-1.07812 3.04687,-1.07812 2,0 3.26563,1.3125 1.26562,1.29687 1.26562,3.60937 0,1.85938 -0.5625,2.9375 -0.5625,1.0625 -1.64062,1.65625 -1.0625,0.59375 -2.32813,0.59375 -2.03125,0 -3.28125,-1.29687 -1.25,-1.3125 -1.25,-3.76563 z m 1.6875,0 q 0,1.85938 0.79688,2.79688 0.8125,0.92187 2.04687,0.92187 1.21875,0 2.03125,-0.92187 0.8125,-0.9375 0.8125,-2.84375 0,-1.79688 -0.8125,-2.71875 -0.8125,-0.92188 -2.03125,-0.92188 -1.23437,0 -2.04687,0.92188 -0.79688,0.90625 -0.79688,2.76562 z m 9.29759,4.84375 v -9.67187 h 1.46875 v 1.375 q 1.0625,-1.59375 3.07813,-1.59375 0.875,0 1.60937,0.3125 0.73438,0.3125 1.09375,0.82812 0.375,0.5 0.51563,1.20313 0.0937,0.45312 0.0937,1.59375 v 5.95312 h -1.64063 v -5.89062 q 0,-1 -0.20312,-1.48438 -0.1875,-0.5 -0.67188,-0.79687 -0.48437,-0.29688 -1.14062,-0.29688 -1.04688,0 -1.8125,0.67188 -0.75,0.65625 -0.75,2.51562 v 5.28125 z"
       id="path43"
       inkscape:connector-curvature="0"
       style="fill:#000000;fill-rule:nonzero" />
    <path
       d="m 590.60736,395.53003 h 147.83649 v 61.66928 H 590.60736 Z"
       id="path45"
       inkscape:connector-curvature="0"
       style="fill:#c9daf8;fill-rule:evenodd" />
    <path
       d="m 590.60736,395.53003 h 147.83649 v 61.66928 H 590.60736 Z"
       id="path47"
       inkscape:connector-curvature="0"
       style="fill-rule:evenodd;stroke:#000000;stroke-width:1;stroke-linecap:butt;stroke-linejoin:round" />
    <path
       d="m 605.303,433.28467 v -13.35938 h 5.04687 q 1.32813,0 2.03125,0.125 0.96875,0.17188 1.64063,0.64063 0.67187,0.45312 1.07812,1.28125 0.40625,0.82812 0.40625,1.82812 0,1.70313 -1.09375,2.89063 -1.07812,1.17187 -3.92187,1.17187 h -3.42188 v 5.42188 z m 1.76562,-7 h 3.45313 q 1.71875,0 2.4375,-0.64063 0.71875,-0.64062 0.71875,-1.79687 0,-0.84375 -0.42188,-1.4375 -0.42187,-0.59375 -1.125,-0.78125 -0.4375,-0.125 -1.64062,-0.125 h -3.42188 z m 9.86542,2.15625 q 0,-2.6875 1.48438,-3.96875 1.25,-1.07813 3.04687,-1.07813 2,0 3.26563,1.3125 1.26562,1.29688 1.26562,3.60938 0,1.85937 -0.5625,2.9375 -0.5625,1.0625 -1.64062,1.65625 -1.0625,0.59375 -2.32813,0.59375 -2.03125,0 -3.28125,-1.29688 -1.25,-1.3125 -1.25,-3.76562 z m 1.6875,0 q 0,1.85937 0.79688,2.79687 0.8125,0.92188 2.04687,0.92188 1.21875,0 2.03125,-0.92188 0.8125,-0.9375 0.8125,-2.84375 0,-1.79687 -0.8125,-2.71875 -0.8125,-0.92187 -2.03125,-0.92187 -1.23437,0 -2.04687,0.92187 -0.79688,0.90625 -0.79688,2.76563 z m 9.25073,4.84375 v -13.35938 h 1.64063 v 13.35938 z m 4.19172,-11.46875 v -1.89063 h 1.64062 v 1.89063 z m 0,11.46875 v -9.67188 h 1.64062 v 9.67188 z m 10.45727,-3.54688 1.60938,0.21875 q -0.26563,1.65625 -1.35938,2.60938 -1.07812,0.9375 -2.67187,0.9375 -1.98438,0 -3.1875,-1.29688 -1.20313,-1.29687 -1.20313,-3.71875 0,-1.57812 0.51563,-2.75 0.51562,-1.17187 1.57812,-1.75 1.0625,-0.59375 2.3125,-0.59375 1.57813,0 2.57813,0.79688 1,0.79687 1.28125,2.26562 l -1.59375,0.23438 q -0.23438,-0.96875 -0.8125,-1.45313 -0.57813,-0.5 -1.39063,-0.5 -1.23437,0 -2.01562,0.89063 -0.78125,0.89062 -0.78125,2.8125 0,1.95312 0.75,2.84375 0.75,0.875 1.95312,0.875 0.96875,0 1.60938,-0.59375 0.65625,-0.59375 0.82812,-1.82813 z m 2.9375,7.26563 -0.1875,-1.53125 q 0.54688,0.14062 0.9375,0.14062 0.54688,0 0.875,-0.1875 0.32813,-0.17187 0.54688,-0.5 0.15625,-0.25 0.5,-1.21875 0.0469,-0.14062 0.14062,-0.40625 l -3.67187,-9.6875 h 1.76562 l 2.01563,5.59375 q 0.39062,1.07813 0.70312,2.25 0.28125,-1.125 0.67188,-2.20312 l 2.07812,-5.64063 h 1.64063 l -3.6875,9.82813 q -0.59375,1.60937 -0.92188,2.20312 -0.4375,0.8125 -1,1.1875 -0.5625,0.375 -1.34375,0.375 -0.48437,0 -1.0625,-0.20312 z m 14.19898,-8.01563 1.65625,-0.14062 q 0.125,1 0.54687,1.64062 0.4375,0.64063 1.34375,1.04688 0.92188,0.39062 2.0625,0.39062 1,0 1.78125,-0.29687 0.78125,-0.29688 1.15625,-0.8125 0.375,-0.53125 0.375,-1.15625 0,-0.625 -0.375,-1.09375 -0.35937,-0.46875 -1.1875,-0.79688 -0.54687,-0.20312 -2.39062,-0.64062 -1.82813,-0.45313 -2.5625,-0.84375 -0.96875,-0.5 -1.4375,-1.23438 -0.46875,-0.75 -0.46875,-1.67187 0,-1 0.57812,-1.875 0.57813,-0.89063 1.67188,-1.34375 1.10937,-0.45313 2.45312,-0.45313 1.48438,0 2.60938,0.48438 1.14062,0.46875 1.75,1.40625 0.60937,0.92187 0.65625,2.09375 l -1.6875,0.125 q -0.14063,-1.26563 -0.9375,-1.90625 -0.78125,-0.65625 -2.3125,-0.65625 -1.60938,0 -2.34375,0.59375 -0.73438,0.59375 -0.73438,1.42187 0,0.71875 0.53125,1.17188 0.5,0.46875 2.65625,0.96875 2.15625,0.48437 2.95313,0.84375 1.17187,0.53125 1.71875,1.35937 0.5625,0.82813 0.5625,1.90625 0,1.0625 -0.60938,2.01563 -0.60937,0.9375 -1.75,1.46875 -1.14062,0.51562 -2.57812,0.51562 -1.8125,0 -3.04688,-0.53125 -1.21875,-0.53125 -1.92187,-1.59375 -0.6875,-1.0625 -0.71875,-2.40625 z m 19.45916,1.1875 1.6875,0.20313 q -0.40625,1.48437 -1.48437,2.3125 -1.07813,0.8125 -2.76563,0.8125 -2.125,0 -3.375,-1.29688 -1.23437,-1.3125 -1.23437,-3.67187 0,-2.45313 1.25,-3.79688 1.26562,-1.34375 3.26562,-1.34375 1.9375,0 3.15625,1.32813 1.23438,1.3125 1.23438,3.70312 0,0.15625 0,0.4375 h -7.21875 q 0.0937,1.59375 0.90625,2.45313 0.8125,0.84375 2.01562,0.84375 0.90625,0 1.54688,-0.46875 0.64062,-0.48438 1.01562,-1.51563 z m -5.39062,-2.65625 h 5.40625 q -0.10938,-1.21875 -0.625,-1.82812 -0.78125,-0.95313 -2.03125,-0.95313 -1.125,0 -1.90625,0.76563 -0.76563,0.75 -0.84375,2.01562 z m 8.4851,2.875 1.625,-0.25 q 0.125,0.96875 0.75,1.5 0.625,0.51563 1.75,0.51563 1.125,0 1.67188,-0.45313 0.54687,-0.46875 0.54687,-1.09375 0,-0.54687 -0.48437,-0.875 -0.32813,-0.21875 -1.67188,-0.54687 -1.8125,-0.46875 -2.51562,-0.79688 -0.6875,-0.32812 -1.04688,-0.90625 -0.35937,-0.59375 -0.35937,-1.3125 0,-0.64062 0.29687,-1.1875 0.29688,-0.5625 0.8125,-0.92187 0.375,-0.28125 1.03125,-0.46875 0.67188,-0.20313 1.42188,-0.20313 1.14062,0 2,0.32813 0.85937,0.32812 1.26562,0.89062 0.42188,0.5625 0.57813,1.5 l -1.60938,0.21875 q -0.10937,-0.75 -0.64062,-1.17187 -0.51563,-0.42188 -1.46875,-0.42188 -1.14063,0 -1.625,0.375 -0.46875,0.375 -0.46875,0.875 0,0.3125 0.1875,0.57813 0.20312,0.26562 0.64062,0.4375 0.23438,0.0937 1.4375,0.42187 1.75,0.45313 2.4375,0.75 0.6875,0.29688 1.07813,0.85938 0.39062,0.5625 0.39062,1.40625 0,0.82812 -0.48437,1.54687 -0.46875,0.71875 -1.375,1.125 -0.90625,0.39063 -2.04688,0.39063 -1.875,0 -2.875,-0.78125 -0.98437,-0.78125 -1.25,-2.32813 z m 9.32813,0 1.625,-0.25 q 0.125,0.96875 0.75,1.5 0.625,0.51563 1.75,0.51563 1.125,0 1.67187,-0.45313 0.54688,-0.46875 0.54688,-1.09375 0,-0.54687 -0.48438,-0.875 -0.32812,-0.21875 -1.67187,-0.54687 -1.8125,-0.46875 -2.51563,-0.79688 -0.6875,-0.32812 -1.04687,-0.90625 -0.35938,-0.59375 -0.35938,-1.3125 0,-0.64062 0.29688,-1.1875 0.29687,-0.5625 0.8125,-0.92187 0.375,-0.28125 1.03125,-0.46875 0.67187,-0.20313 1.42187,-0.20313 1.14063,0 2,0.32813 0.85938,0.32812 1.26563,0.89062 0.42187,0.5625 0.57812,1.5 l -1.60937,0.21875 q -0.10938,-0.75 -0.64063,-1.17187 -0.51562,-0.42188 -1.46875,-0.42188 -1.14062,0 -1.625,0.375 -0.46875,0.375 -0.46875,0.875 0,0.3125 0.1875,0.57813 0.20313,0.26562 0.64063,0.4375 0.23437,0.0937 1.4375,0.42187 1.75,0.45313 2.4375,0.75 0.6875,0.29688 1.07812,0.85938 0.39063,0.5625 0.39063,1.40625 0,0.82812 -0.48438,1.54687 -0.46875,0.71875 -1.375,1.125 -0.90625,0.39063 -2.04687,0.39063 -1.875,0 -2.875,-0.78125 -0.98438,-0.78125 -1.25,-2.32813 z m 9.98437,-8.57812 v -1.89063 h 1.64063 v 1.89063 z m 0,11.46875 v -9.67188 h 1.64063 v 9.67188 z m 3.53547,-4.84375 q 0,-2.6875 1.48437,-3.96875 1.25,-1.07813 3.04688,-1.07813 2,0 3.26562,1.3125 1.26563,1.29688 1.26563,3.60938 0,1.85937 -0.5625,2.9375 -0.5625,1.0625 -1.64063,1.65625 -1.0625,0.59375 -2.32812,0.59375 -2.03125,0 -3.28125,-1.29688 -1.25,-1.3125 -1.25,-3.76562 z m 1.6875,0 q 0,1.85937 0.79687,2.79687 0.8125,0.92188 2.04688,0.92188 1.21875,0 2.03125,-0.92188 0.8125,-0.9375 0.8125,-2.84375 0,-1.79687 -0.8125,-2.71875 -0.8125,-0.92187 -2.03125,-0.92187 -1.23438,0 -2.04688,0.92187 -0.79687,0.90625 -0.79687,2.76563 z m 9.29754,4.84375 v -9.67188 h 1.46875 v 1.375 q 1.0625,-1.59375 3.07813,-1.59375 0.875,0 1.60937,0.3125 0.73438,0.3125 1.09375,0.82813 0.375,0.5 0.51563,1.20312 0.0937,0.45313 0.0937,1.59375 v 5.95313 h -1.64063 v -5.89063 q 0,-1 -0.20312,-1.48437 -0.1875,-0.5 -0.67188,-0.79688 -0.48437,-0.29687 -1.14062,-0.29687 -1.04688,0 -1.8125,0.67187 -0.75,0.65625 -0.75,2.51563 v 5.28125 z"
       id="path49"
       inkscape:connector-curvature="0"
       style="fill:#000000;fill-rule:nonzero" />
    <path
       d="m 590.60736,456.09686 h 147.83649 v 49.70078 H 590.60736 Z"
       id="path51"
       inkscape:connector-curvature="0"
       style="fill:#c9daf8;fill-rule:evenodd" />
    <path
       d="m 590.60736,456.09686 h 147.83649 v 49.70078 H 590.60736 Z"
       id="path53"
       inkscape:connector-curvature="0"
       style="fill-rule:evenodd;stroke:#000000;stroke-width:1;stroke-linecap:butt;stroke-linejoin:round" />
    <path
       d="m 617.5331,477.02725 v -10.48438 h 3.40625 q 1.92187,0 2.51562,0.15625 0.90625,0.23438 1.51563,1.03125 0.60937,0.78125 0.60937,2.03125 0,0.96875 -0.35937,1.625 -0.34375,0.65625 -0.89063,1.03125 -0.53125,0.375 -1.09375,0.5 -0.76562,0.15625 -2.20312,0.15625 h -1.375 v 3.95313 z m 2.125,-8.71875 v 2.98437 h 1.15625 q 1.25,0 1.67187,-0.15625 0.42188,-0.17187 0.65625,-0.51562 0.25,-0.35938 0.25,-0.82813 0,-0.57812 -0.34375,-0.9375 -0.32812,-0.375 -0.84375,-0.46875 -0.375,-0.0781 -1.53125,-0.0781 z m 7.18182,4.8125 q 0,-1 0.48438,-1.9375 0.5,-0.9375 1.40625,-1.42188 0.90625,-0.5 2.01562,-0.5 1.71875,0 2.82813,1.125 1.10937,1.10938 1.10937,2.8125 0,1.73438 -1.125,2.875 -1.10937,1.125 -2.79687,1.125 -1.04688,0 -2,-0.46875 -0.9375,-0.46875 -1.4375,-1.375 -0.48438,-0.92187 -0.48438,-2.23437 z m 2.04688,0.10937 q 0,1.125 0.53125,1.73438 0.54687,0.59375 1.34375,0.59375 0.78125,0 1.3125,-0.59375 0.53125,-0.60938 0.53125,-1.75 0,-1.125 -0.53125,-1.71875 -0.53125,-0.60938 -1.3125,-0.60938 -0.79688,0 -1.34375,0.60938 -0.53125,0.59375 -0.53125,1.73437 z m 7.35889,3.79688 v -10.48438 h 2.01562 v 10.48438 z m 4.07196,-8.625 v -1.85938 h 2.01562 v 1.85938 z m 0,8.625 v -7.59375 h 2.01562 v 7.59375 z m 10.69696,-5.35938 -1.96875,0.35938 q -0.10938,-0.59375 -0.46875,-0.89063 -0.34375,-0.29687 -0.90625,-0.29687 -0.75,0 -1.20313,0.51562 -0.45312,0.51563 -0.45312,1.73438 0,1.35937 0.45312,1.92187 0.45313,0.54688 1.21875,0.54688 0.57813,0 0.9375,-0.32813 0.375,-0.32812 0.51563,-1.10937 l 1.98437,0.32812 q -0.3125,1.35938 -1.1875,2.0625 -0.875,0.6875 -2.32812,0.6875 -1.67188,0 -2.67188,-1.04687 -0.98437,-1.0625 -0.98437,-2.92188 0,-1.875 0.98437,-2.92187 1,-1.04688 2.70313,-1.04688 1.39062,0 2.20312,0.59375 0.82813,0.59375 1.17188,1.8125 z m 0.57299,-2.23437 h 2.14063 l 1.82812,5.39062 1.76563,-5.39062 h 2.09375 l -2.6875,7.3125 -0.48438,1.3125 q -0.26562,0.67187 -0.51562,1.01562 -0.23438,0.35938 -0.54688,0.57813 -0.29687,0.21875 -0.76562,0.32812 -0.45313,0.125 -1.01563,0.125 -0.57812,0 -1.14062,-0.10937 l -0.17188,-1.57813 q 0.46875,0.0937 0.84375,0.0937 0.70313,0 1.03125,-0.42187 0.34375,-0.40625 0.51563,-1.04688 z m 13.19184,-2.89063 h 3.875 q 1.29687,0 1.98437,0.1875 0.92188,0.28125 1.57813,0.98438 0.67187,0.6875 1.01562,1.6875 0.34375,1 0.34375,2.48437 0,1.29688 -0.32812,2.23438 -0.39063,1.14062 -1.125,1.84375 -0.54688,0.54687 -1.48438,0.84375 -0.70312,0.21875 -1.875,0.21875 h -3.98437 z m 2.10937,1.76563 v 6.95312 h 1.59375 q 0.875,0 1.28125,-0.10937 0.51563,-0.125 0.84375,-0.42188 0.34375,-0.3125 0.5625,-1.01562 0.21875,-0.70313 0.21875,-1.92188 0,-1.21875 -0.21875,-1.85937 -0.21875,-0.65625 -0.60937,-1.01563 -0.375,-0.375 -0.96875,-0.5 -0.45313,-0.10937 -1.75,-0.10937 z m 8.45929,0.0937 v -1.85938 h 2.01563 v 1.85938 z m 0,8.625 v -7.59375 h 2.01563 v 7.59375 z m 3.88446,0.5 2.29688,0.28125 q 0.0625,0.40625 0.26562,0.54687 0.29688,0.21875 0.90625,0.21875 0.78125,0 1.1875,-0.23437 0.26563,-0.15625 0.39063,-0.51563 0.0937,-0.25 0.0937,-0.92187 v -1.10938 q -0.89063,1.23438 -2.26563,1.23438 -1.53125,0 -2.4375,-1.29688 -0.70312,-1.01562 -0.70312,-2.54687 0,-1.90625 0.92187,-2.90625 0.92188,-1.01563 2.29688,-1.01563 1.40625,0 2.32812,1.23438 v -1.0625 h 1.875 v 6.8125 q 0,1.34375 -0.21875,2 -0.21875,0.67187 -0.625,1.04687 -0.40625,0.39063 -1.07812,0.59375 -0.65625,0.21875 -1.6875,0.21875 -1.9375,0 -2.75,-0.65625 -0.79688,-0.65625 -0.79688,-1.67187 0,-0.10938 0,-0.25 z m 1.79688,-4.45313 q 0,1.20313 0.46875,1.76563 0.46875,0.5625 1.15625,0.5625 0.75,0 1.25,-0.57813 0.51562,-0.57812 0.51562,-1.70312 0,-1.1875 -0.5,-1.75 -0.48437,-0.57813 -1.21875,-0.57813 -0.73437,0 -1.20312,0.5625 -0.46875,0.5625 -0.46875,1.71875 z m 11.74951,1.53125 2,0.34375 q -0.375,1.09375 -1.21875,1.67188 -0.82813,0.57812 -2.07813,0.57812 -1.98437,0 -2.9375,-1.29687 -0.75,-1.03125 -0.75,-2.625 0,-1.875 0.98438,-2.9375 0.98437,-1.07813 2.5,-1.07813 1.6875,0 2.67187,1.125 0.98438,1.10938 0.9375,3.42188 h -5.03125 q 0.0156,0.89062 0.48438,1.39062 0.46875,0.5 1.15625,0.5 0.46875,0 0.78125,-0.25 0.32812,-0.26562 0.5,-0.84375 z m 0.10937,-2.03125 q -0.0156,-0.875 -0.45312,-1.32812 -0.42188,-0.45313 -1.03125,-0.45313 -0.67188,0 -1.09375,0.48438 -0.42188,0.46875 -0.42188,1.29687 z m 2.93238,2.28125 2.01562,-0.29687 q 0.125,0.57812 0.51563,0.89062 0.40625,0.29688 1.10937,0.29688 0.78125,0 1.17188,-0.28125 0.26562,-0.20313 0.26562,-0.54688 0,-0.21875 -0.14062,-0.375 -0.15625,-0.14062 -0.67188,-0.26562 -2.4375,-0.53125 -3.07812,-0.98438 -0.90625,-0.60937 -0.90625,-1.70312 0,-0.98438 0.78125,-1.65625 0.78125,-0.67188 2.42187,-0.67188 1.54688,0 2.3125,0.51563 0.76563,0.5 1.04688,1.48437 l -1.90625,0.35938 q -0.10938,-0.45313 -0.45313,-0.6875 -0.34375,-0.23438 -0.96875,-0.23438 -0.79687,0 -1.14062,0.21875 -0.23438,0.15625 -0.23438,0.40625 0,0.21875 0.20313,0.375 0.28125,0.20313 1.875,0.5625 1.60937,0.35938 2.25,0.89063 0.625,0.54687 0.625,1.5 0,1.04687 -0.875,1.79687 -0.85938,0.75 -2.57813,0.75 -1.54687,0 -2.45312,-0.625 -0.90625,-0.64062 -1.1875,-1.71875 z m 12.33856,-5.42187 v 1.59375 h -1.375 v 3.0625 q 0,0.9375 0.0312,1.09375 0.0469,0.14062 0.1875,0.25 0.14062,0.0937 0.34375,0.0937 0.28125,0 0.8125,-0.1875 l 0.17187,1.5625 q -0.70312,0.29687 -1.59375,0.29687 -0.54687,0 -0.98437,-0.17187 -0.42188,-0.1875 -0.64063,-0.46875 -0.20312,-0.29688 -0.28125,-0.79688 -0.0625,-0.35937 -0.0625,-1.42187 v -3.3125 h -0.92187 v -1.59375 h 0.92187 v -1.51563 l 2.01563,-1.17187 v 2.6875 z"
       id="path55"
       inkscape:connector-curvature="0"
       style="fill:#000000;fill-rule:nonzero" />
    <path
       d="m 709.8368,470.88663 v -1.45312 h 1.46875 v 1.45312 z m 0,6.14063 v -1.46875 h 1.46875 v 1.46875 z"
       id="path57"
       inkscape:connector-curvature="0"
       style="fill:#000000;fill-rule:nonzero" />
    <path
       d="m 619.724,495.02725 v -10.48438 h 7.07813 v 1.23438 h -5.6875 v 3.25 h 4.92187 v 1.23437 h -4.92187 v 4.76563 z m 8.95258,0 v -10.48438 h 7.07812 v 1.23438 h -5.6875 v 3.25 h 4.92188 v 1.23437 h -4.92188 v 4.76563 z m 12.97772,0 v -10.48438 h 7.59375 v 1.23438 h -6.20313 v 3.20312 h 5.79688 v 1.23438 h -5.79688 v 3.57812 h 6.4375 v 1.23438 z m 9.77563,0 v -10.48438 h 7.59375 v 1.23438 h -6.20312 v 3.20312 h 5.79687 v 1.23438 h -5.79687 v 3.57812 h 6.4375 v 1.23438 z m 13.81635,0 v -10.48438 h 3.625 q 1.21875,0 1.85937,0.14063 0.90625,0.20312 1.54688,0.75 0.82812,0.70312 1.23437,1.79687 0.40625,1.09375 0.40625,2.5 0,1.1875 -0.28125,2.10938 -0.26562,0.92187 -0.70312,1.53125 -0.4375,0.60937 -0.96875,0.95312 -0.51563,0.34375 -1.25,0.53125 -0.71875,0.17188 -1.67188,0.17188 z m 1.39062,-1.23438 h 2.25 q 1.03125,0 1.625,-0.1875 0.59375,-0.20312 0.9375,-0.54687 0.5,-0.5 0.76563,-1.32813 0.28125,-0.84375 0.28125,-2.03125 0,-1.64062 -0.54688,-2.51562 -0.53125,-0.89063 -1.3125,-1.1875 -0.54687,-0.21875 -1.79687,-0.21875 h -2.20313 z m 9.19361,1.23438 v -10.48438 h 3.625 q 1.21875,0 1.85937,0.14063 0.90625,0.20312 1.54688,0.75 0.82812,0.70312 1.23437,1.79687 0.40625,1.09375 0.40625,2.5 0,1.1875 -0.28125,2.10938 -0.26562,0.92187 -0.70312,1.53125 -0.4375,0.60937 -0.96875,0.95312 -0.51563,0.34375 -1.25,0.53125 -0.71875,0.17188 -1.67188,0.17188 z m 1.39062,-1.23438 h 2.25 q 1.03125,0 1.625,-0.1875 0.59375,-0.20312 0.9375,-0.54687 0.5,-0.5 0.76563,-1.32813 0.28125,-0.84375 0.28125,-2.03125 0,-1.64062 -0.54688,-2.51562 -0.53125,-0.89063 -1.3125,-1.1875 -0.54687,-0.21875 -1.79687,-0.21875 h -2.20313 z m 20.75,-2.4375 1.39063,0.34375 q -0.4375,1.70313 -1.57813,2.60938 -1.125,0.89062 -2.76562,0.89062 -1.6875,0 -2.75,-0.6875 -1.0625,-0.6875 -1.625,-2 -0.54688,-1.3125 -0.54688,-2.8125 0,-1.64062 0.625,-2.85937 0.625,-1.21875 1.78125,-1.84375 1.15625,-0.64063 2.54688,-0.64063 1.5625,0 2.64062,0.8125 1.07813,0.79688 1.5,2.25 l -1.375,0.3125 q -0.35937,-1.14062 -1.0625,-1.65625 -0.6875,-0.53125 -1.73437,-0.53125 -1.21875,0 -2.03125,0.57813 -0.8125,0.57812 -1.14063,1.5625 -0.32812,0.96875 -0.32812,2.01562 0,1.32813 0.39062,2.32813 0.39063,1 1.21875,1.5 0.82813,0.48437 1.78125,0.48437 1.17188,0 1.96875,-0.67187 0.8125,-0.67188 1.09375,-1.98438 z m 10.58429,0 1.39063,0.34375 q -0.4375,1.70313 -1.57813,2.60938 -1.125,0.89062 -2.76562,0.89062 -1.6875,0 -2.75,-0.6875 -1.0625,-0.6875 -1.625,-2 -0.54688,-1.3125 -0.54688,-2.8125 0,-1.64062 0.625,-2.85937 0.625,-1.21875 1.78125,-1.84375 1.15625,-0.64063 2.54688,-0.64063 1.5625,0 2.64062,0.8125 1.07813,0.79688 1.5,2.25 l -1.375,0.3125 q -0.35937,-1.14062 -1.0625,-1.65625 -0.6875,-0.53125 -1.73437,-0.53125 -1.21875,0 -2.03125,0.57813 -0.8125,0.57812 -1.14063,1.5625 -0.32812,0.96875 -0.32812,2.01562 0,1.32813 0.39062,2.32813 0.39063,1 1.21875,1.5 0.82813,0.48437 1.78125,0.48437 1.17188,0 1.96875,-0.67187 0.8125,-0.67188 1.09375,-1.98438 z"
       id="path59"
       inkscape:connector-curvature="0"
       style="fill:#000000;fill-rule:nonzero" />
    <path
       d="m 770.8058,419.28348 h 175.30707 v 61.66928 H 770.8058 Z"
       id="path61"
       inkscape:connector-curvature="0"
       style="fill:#d9d2e9;fill-rule:evenodd" />
    <path
       d="m 770.8058,419.28348 h 175.30707 v 61.66928 H 770.8058 Z"
       id="path63"
       inkscape:connector-curvature="0"
       style="fill-rule:evenodd;stroke:#000000;stroke-width:1;stroke-linecap:butt;stroke-linejoin:round" />
    <path
       d="m 804.2006,457.03812 v -11.78125 h -4.40625 v -1.57813 h 10.57812 v 1.57813 h -4.40625 v 11.78125 z m 7.98975,0 v -13.35938 h 5.04687 q 1.32813,0 2.03125,0.125 0.96875,0.17188 1.64063,0.64063 0.67187,0.45312 1.07812,1.28125 0.40625,0.82812 0.40625,1.82812 0,1.70313 -1.09375,2.89063 -1.07812,1.17187 -3.92187,1.17187 h -3.42188 v 5.42188 z m 1.76562,-7 h 3.45313 q 1.71875,0 2.4375,-0.64063 0.71875,-0.64062 0.71875,-1.79687 0,-0.84375 -0.42188,-1.4375 -0.42187,-0.59375 -1.125,-0.78125 -0.4375,-0.125 -1.64062,-0.125 h -3.42188 z m 10.6311,7 v -13.35938 h 2.65625 l 3.15625,9.45313 q 0.4375,1.32812 0.64063,1.98437 0.23437,-0.73437 0.70312,-2.14062 l 3.20313,-9.29688 h 2.375 v 13.35938 h -1.70313 v -11.17188 l -3.875,11.17188 h -1.59375 l -3.85937,-11.375 v 11.375 z m 23.54078,-1.57813 v 1.57813 h -8.82813 q -0.0156,-0.59375 0.1875,-1.14063 0.34375,-0.90625 1.07813,-1.78125 0.75,-0.875 2.15625,-2.01562 2.17187,-1.78125 2.9375,-2.82813 0.76562,-1.04687 0.76562,-1.96875 0,-0.98437 -0.70312,-1.64062 -0.6875,-0.67188 -1.8125,-0.67188 -1.1875,0 -1.90625,0.71875 -0.70313,0.70313 -0.70313,1.95313 l -1.6875,-0.17188 q 0.17188,-1.89062 1.29688,-2.875 1.14062,-0.98437 3.03125,-0.98437 1.92187,0 3.04687,1.0625 1.125,1.0625 1.125,2.64062 0,0.79688 -0.32812,1.57813 -0.32813,0.78125 -1.09375,1.64062 -0.75,0.84375 -2.53125,2.34375 -1.46875,1.23438 -1.89063,1.6875 -0.42187,0.4375 -0.6875,0.875 z m 0.70385,5.28125 v -1.1875 h 10.85938 v 1.1875 z m 20.86011,-17.0625 h 1.76562 v 7.71875 q 0,2.01563 -0.45312,3.20313 -0.45313,1.1875 -1.64063,1.9375 -1.1875,0.73437 -3.125,0.73437 -1.875,0 -3.07812,-0.64062 -1.1875,-0.65625 -1.70313,-1.875 -0.5,-1.23438 -0.5,-3.35938 v -7.71875 h 1.76563 v 7.71875 q 0,1.73438 0.3125,2.5625 0.32812,0.8125 1.10937,1.26563 0.79688,0.45312 1.9375,0.45312 1.95313,0 2.78125,-0.89062 0.82813,-0.89063 0.82813,-3.39063 z m 4.50415,13.35938 v -9.67188 h 1.46875 v 1.375 q 1.0625,-1.59375 3.07813,-1.59375 0.875,0 1.60937,0.3125 0.73438,0.3125 1.09375,0.82813 0.375,0.5 0.51563,1.20312 0.0937,0.45313 0.0937,1.59375 v 5.95313 h -1.64063 v -5.89063 q 0,-1 -0.20312,-1.48437 -0.1875,-0.5 -0.67188,-0.79688 -0.48437,-0.29687 -1.14062,-0.29687 -1.04688,0 -1.8125,0.67187 -0.75,0.65625 -0.75,2.51563 v 5.28125 z m 9.71948,-2.89063 1.625,-0.25 q 0.125,0.96875 0.75,1.5 0.625,0.51563 1.75,0.51563 1.125,0 1.67188,-0.45313 0.54687,-0.46875 0.54687,-1.09375 0,-0.54687 -0.48437,-0.875 -0.32813,-0.21875 -1.67188,-0.54687 -1.8125,-0.46875 -2.51562,-0.79688 -0.6875,-0.32812 -1.04688,-0.90625 -0.35937,-0.59375 -0.35937,-1.3125 0,-0.64062 0.29687,-1.1875 0.29688,-0.5625 0.8125,-0.92187 0.375,-0.28125 1.03125,-0.46875 0.67188,-0.20313 1.42188,-0.20313 1.14062,0 2,0.32813 0.85937,0.32812 1.26562,0.89062 0.42188,0.5625 0.57813,1.5 l -1.60938,0.21875 q -0.10937,-0.75 -0.64062,-1.17187 -0.51563,-0.42188 -1.46875,-0.42188 -1.14063,0 -1.625,0.375 -0.46875,0.375 -0.46875,0.875 0,0.3125 0.1875,0.57813 0.20312,0.26562 0.64062,0.4375 0.23438,0.0937 1.4375,0.42187 1.75,0.45313 2.4375,0.75 0.6875,0.29688 1.07813,0.85938 0.39062,0.5625 0.39062,1.40625 0,0.82812 -0.48437,1.54687 -0.46875,0.71875 -1.375,1.125 -0.90625,0.39063 -2.04688,0.39063 -1.875,0 -2.875,-0.78125 -0.98437,-0.78125 -1.25,-2.32813 z m 16.60938,-0.21875 1.6875,0.20313 q -0.40625,1.48437 -1.48438,2.3125 -1.07812,0.8125 -2.76562,0.8125 -2.125,0 -3.375,-1.29688 -1.23438,-1.3125 -1.23438,-3.67187 0,-2.45313 1.25,-3.79688 1.26563,-1.34375 3.26563,-1.34375 1.9375,0 3.15625,1.32813 1.23437,1.3125 1.23437,3.70312 0,0.15625 0,0.4375 h -7.21875 q 0.0937,1.59375 0.90625,2.45313 0.8125,0.84375 2.01563,0.84375 0.90625,0 1.54687,-0.46875 0.64063,-0.48438 1.01563,-1.51563 z m -5.39063,-2.65625 h 5.40625 q -0.10937,-1.21875 -0.625,-1.82812 -0.78125,-0.95313 -2.03125,-0.95313 -1.125,0 -1.90625,0.76563 -0.76562,0.75 -0.84375,2.01562 z m 15.45386,4.57813 q -0.92188,0.76562 -1.76563,1.09375 -0.82812,0.3125 -1.79687,0.3125 -1.59375,0 -2.45313,-0.78125 -0.85937,-0.78125 -0.85937,-1.98438 0,-0.71875 0.32812,-1.29687 0.32813,-0.59375 0.84375,-0.9375 0.53125,-0.35938 1.1875,-0.54688 0.46875,-0.125 1.45313,-0.25 1.98437,-0.23437 2.92187,-0.5625 0.0156,-0.34375 0.0156,-0.42187 0,-1 -0.46875,-1.42188 -0.625,-0.54687 -1.875,-0.54687 -1.15625,0 -1.70313,0.40625 -0.54687,0.40625 -0.8125,1.42187 l -1.60937,-0.21875 q 0.21875,-1.01562 0.71875,-1.64062 0.5,-0.64063 1.45312,-0.98438 0.95313,-0.34375 2.1875,-0.34375 1.25,0 2.01563,0.29688 0.78125,0.28125 1.14062,0.73437 0.375,0.4375 0.51563,1.10938 0.0781,0.42187 0.0781,1.51562 v 2.1875 q 0,2.28125 0.10938,2.89063 0.10937,0.59375 0.40625,1.15625 h -1.70313 q -0.26562,-0.51563 -0.32812,-1.1875 z m -0.14063,-3.67188 q -0.89062,0.375 -2.67187,0.625 -1.01563,0.14063 -1.4375,0.32813 -0.42188,0.1875 -0.65625,0.53125 -0.21875,0.34375 -0.21875,0.78125 0,0.65625 0.5,1.09375 0.5,0.4375 1.45312,0.4375 0.9375,0 1.67188,-0.40625 0.75,-0.42188 1.09375,-1.14063 0.26562,-0.5625 0.26562,-1.64062 z m 4.15699,4.85938 v -13.35938 h 1.64062 v 13.35938 z"
       id="path65"
       inkscape:connector-curvature="0"
       style="fill:#000000;fill-rule:nonzero" />
    <path
       d="m 770.80444,266.17847 h 175.30713 v 61.66931 H 770.80444 Z"
       id="path67"
       inkscape:connector-curvature="0"
       style="fill:#f4cccc;fill-rule:evenodd" />
    <path
       d="m 770.80444,266.17847 h 175.30713 v 61.66931 H 770.80444 Z"
       id="path69"
       inkscape:connector-curvature="0"
       style="fill-rule:evenodd;stroke:#000000;stroke-width:1;stroke-linecap:butt;stroke-linejoin:round" />
    <path
       d="m 834.5829,303.93314 v -13.35938 h 9.01562 v 1.57813 h -7.25 v 4.14062 h 6.26563 v 1.57813 h -6.26563 v 6.0625 z m 17.41156,-1.1875 q -0.92188,0.76562 -1.76563,1.09375 -0.82812,0.3125 -1.79687,0.3125 -1.59375,0 -2.45313,-0.78125 -0.85937,-0.78125 -0.85937,-1.98438 0,-0.71875 0.32812,-1.29687 0.32813,-0.59375 0.84375,-0.9375 0.53125,-0.35938 1.1875,-0.54688 0.46875,-0.125 1.45313,-0.25 1.98437,-0.23437 2.92187,-0.5625 0.0156,-0.34375 0.0156,-0.42187 0,-1 -0.46875,-1.42188 -0.625,-0.54687 -1.875,-0.54687 -1.15625,0 -1.70313,0.40625 -0.54687,0.40625 -0.8125,1.42187 l -1.60937,-0.21875 q 0.21875,-1.01562 0.71875,-1.64062 0.5,-0.64063 1.45312,-0.98438 0.95313,-0.34375 2.1875,-0.34375 1.25,0 2.01563,0.29688 0.78125,0.28125 1.14062,0.73437 0.375,0.4375 0.51563,1.10938 0.0781,0.42187 0.0781,1.51562 v 2.1875 q 0,2.28125 0.10938,2.89063 0.10937,0.59375 0.40625,1.15625 h -1.70313 q -0.26562,-0.51563 -0.32812,-1.1875 z m -0.14063,-3.67188 q -0.89062,0.375 -2.67187,0.625 -1.01563,0.14063 -1.4375,0.32813 -0.42188,0.1875 -0.65625,0.53125 -0.21875,0.34375 -0.21875,0.78125 0,0.65625 0.5,1.09375 0.5,0.4375 1.45312,0.4375 0.9375,0 1.67188,-0.40625 0.75,-0.42188 1.09375,-1.14063 0.26562,-0.5625 0.26562,-1.64062 z m 4.20386,-6.60937 v -1.89063 h 1.64063 v 1.89063 z m 0,11.46875 v -9.67188 h 1.64063 v 9.67188 z m 4.09796,0 v -13.35938 h 1.64063 v 13.35938 z m 10.81671,-3.10938 1.6875,0.20313 q -0.40625,1.48437 -1.48437,2.3125 -1.07813,0.8125 -2.76563,0.8125 -2.125,0 -3.375,-1.29688 -1.23437,-1.3125 -1.23437,-3.67187 0,-2.45313 1.25,-3.79688 1.26562,-1.34375 3.26562,-1.34375 1.9375,0 3.15625,1.32813 1.23438,1.3125 1.23438,3.70312 0,0.15625 0,0.4375 h -7.21875 q 0.0937,1.59375 0.90625,2.45313 0.8125,0.84375 2.01562,0.84375 0.90625,0 1.54688,-0.46875 0.64062,-0.48438 1.01562,-1.51563 z m -5.39062,-2.65625 h 5.40625 q -0.10938,-1.21875 -0.625,-1.82812 -0.78125,-0.95313 -2.03125,-0.95313 -1.125,0 -1.90625,0.76563 -0.76563,0.75 -0.84375,2.01562 z m 15.40692,5.76563 v -1.21875 q -0.90625,1.4375 -2.70312,1.4375 -1.15625,0 -2.125,-0.64063 -0.96875,-0.64062 -1.5,-1.78125 -0.53125,-1.14062 -0.53125,-2.625 0,-1.45312 0.48437,-2.625 0.48438,-1.1875 1.4375,-1.8125 0.96875,-0.625 2.17188,-0.625 0.875,0 1.54687,0.375 0.6875,0.35938 1.10938,0.95313 v -4.79688 h 1.64062 v 13.35938 z m -5.17187,-4.82813 q 0,1.85938 0.78125,2.78125 0.78125,0.92188 1.84375,0.92188 1.07812,0 1.82812,-0.875 0.75,-0.89063 0.75,-2.6875 0,-1.98438 -0.76562,-2.90625 -0.76563,-0.9375 -1.89063,-0.9375 -1.07812,0 -1.8125,0.89062 -0.73437,0.89063 -0.73437,2.8125 z"
       id="path71"
       inkscape:connector-curvature="0"
       style="fill:#000000;fill-rule:nonzero" />
    <path
       d="m 170.37796,450.66403 30.23621,-0.44095"
       id="path73"
       inkscape:connector-curvature="0"
       style="fill:#000000;fill-opacity:0;fill-rule:evenodd" />
    <path
       d="m 170.37796,450.66403 24.23685,-0.35345"
       id="path75"
       inkscape:connector-curvature="0"
       style="fill-rule:evenodd;stroke:#000000;stroke-width:1;stroke-linecap:butt;stroke-linejoin:round" />
    <path
       d="m 194.6389,451.96216 4.51352,-1.71774 -4.56169,-1.58539 z"
       id="path77"
       inkscape:connector-curvature="0"
       style="fill:#000000;fill-rule:evenodd;stroke:#000000;stroke-width:1;stroke-linecap:butt" />
    <path
       d="m 349.01706,450.22308 33.92127,0.44095"
       id="path79"
       inkscape:connector-curvature="0"
       style="fill:#000000;fill-opacity:0;fill-rule:evenodd" />
    <path
       d="m 349.01706,450.22308 27.92175,0.36295"
       id="path81"
       inkscape:connector-curvature="0"
       style="fill-rule:evenodd;stroke:#000000;stroke-width:1;stroke-linecap:butt;stroke-linejoin:round" />
    <path
       d="m 376.91736,452.23764 4.55917,-1.59259 -4.51623,-1.7106 z"
       id="path83"
       inkscape:connector-curvature="0"
       style="fill:#000000;fill-rule:evenodd;stroke:#000000;stroke-width:1;stroke-linecap:butt" />
    <path
       d="m 557.0079,450.22833 33.92126,0.44095"
       id="path85"
       inkscape:connector-curvature="0"
       style="fill:#000000;fill-opacity:0;fill-rule:evenodd" />
    <path
       d="m 557.0079,450.22833 27.92175,0.36295"
       id="path87"
       inkscape:connector-curvature="0"
       style="fill-rule:evenodd;stroke:#000000;stroke-width:1;stroke-linecap:butt;stroke-linejoin:round" />
    <path
       d="m 584.90814,452.2429 4.5592,-1.59259 -4.51623,-1.7106 z"
       id="path89"
       inkscape:connector-curvature="0"
       style="fill:#000000;fill-rule:evenodd;stroke:#000000;stroke-width:1;stroke-linecap:butt" />
    <path
       d="m 741.0079,450.22833 33.92126,0.44095"
       id="path91"
       inkscape:connector-curvature="0"
       style="fill:#000000;fill-opacity:0;fill-rule:evenodd" />
    <path
       d="m 741.0079,450.22833 27.92175,0.36295"
       id="path93"
       inkscape:connector-curvature="0"
       style="fill-rule:evenodd;stroke:#000000;stroke-width:1;stroke-linecap:butt;stroke-linejoin:round" />
    <path
       d="m 768.90814,452.2429 4.5592,-1.59259 -4.51623,-1.7106 z"
       id="path95"
       inkscape:connector-curvature="0"
       style="fill:#000000;fill-rule:evenodd;stroke:#000000;stroke-width:1;stroke-linecap:butt" />
    <path
       d="M 470.59186,557.25195 V 481.50393"
       id="path97"
       inkscape:connector-curvature="0"
       style="fill:#000000;fill-opacity:0;fill-rule:evenodd" />
    <path
       d="M 470.59186,557.25195 V 487.50393"
       id="path99"
       inkscape:connector-curvature="0"
       style="fill-rule:evenodd;stroke:#000000;stroke-width:1;stroke-linecap:butt;stroke-linejoin:round" />
    <path
       d="m 472.2436,487.50394 -1.65173,-4.53809 -1.65174,4.53809 z"
       id="path101"
       inkscape:connector-curvature="0"
       style="fill:#000000;fill-rule:evenodd;stroke:#000000;stroke-width:1;stroke-linecap:butt" />
    <path
       d="M 858.4593,419.28348 V 327.85041"
       id="path103"
       inkscape:connector-curvature="0"
       style="fill:#000000;fill-opacity:0;fill-rule:evenodd" />
    <path
       d="M 858.4593,419.28348 V 333.85041"
       id="path105"
       inkscape:connector-curvature="0"
       style="fill-rule:evenodd;stroke:#000000;stroke-width:1;stroke-linecap:butt;stroke-linejoin:round" />
    <path
       d="m 860.111,333.8504 -1.65173,-4.53812 -1.65174,4.53812 z"
       id="path107"
       inkscape:connector-curvature="0"
       style="fill:#000000;fill-rule:evenodd;stroke:#000000;stroke-width:1;stroke-linecap:butt" />
    <path
       d="m 24.732283,348.54855 928.850397,4.12598"
       id="path109"
       inkscape:connector-curvature="0"
       style="fill:#000000;fill-opacity:0;fill-rule:evenodd" />
    <path
       d="m 24.732283,348.54855 928.850397,4.12598"
       id="path111"
       inkscape:connector-curvature="0"
       style="fill-rule:evenodd;stroke:#000000;stroke-width:1;stroke-linecap:butt;stroke-linejoin:round;stroke-dasharray:4, 3" />
    <path
       d="M 31.603674,277.09973 H 114.02886 V 319.6824 H 31.603674 Z"
       id="path113"
       inkscape:connector-curvature="0"
       style="fill:#000000;fill-opacity:0;fill-rule:evenodd" />
    <path
       d="m 41.947426,290.66037 h 2.6875 v 7.23437 q 0,1.71875 0.109375,2.23438 0.171875,0.82812 0.8125,1.32812 0.65625,0.48438 1.78125,0.48438 1.15625,0 1.734375,-0.46875 0.59375,-0.46875 0.703125,-1.14063 0.125,-0.6875 0.125,-2.28125 v -7.39062 h 2.6875 v 7.01562 q 0,2.40625 -0.21875,3.40625 -0.21875,0.98438 -0.8125,1.67188 -0.578125,0.6875 -1.5625,1.09375 -0.984375,0.40625 -2.5625,0.40625 -1.921875,0 -2.90625,-0.4375 -0.984375,-0.45313 -1.5625,-1.15625 -0.578125,-0.70313 -0.75,-1.48438 -0.265625,-1.14062 -0.265625,-3.39062 z m 12.566696,10.59375 2.5625,-0.39063 q 0.171875,0.75 0.671875,1.14063 0.5,0.39062 1.40625,0.39062 0.984375,0 1.484375,-0.375 0.34375,-0.25 0.34375,-0.67187 0,-0.29688 -0.1875,-0.48438 -0.1875,-0.1875 -0.859375,-0.34375 -3.09375,-0.6875 -3.921875,-1.25 -1.140625,-0.78125 -1.140625,-2.17187 0,-1.26563 0.984375,-2.10938 1,-0.85937 3.078125,-0.85937 1.984375,0 2.953125,0.65625 0.96875,0.64062 1.328125,1.90625 l -2.40625,0.4375 q -0.15625,-0.5625 -0.59375,-0.85938 -0.421875,-0.29687 -1.234375,-0.29687 -1,0 -1.4375,0.28125 -0.296875,0.20312 -0.296875,0.51562 0,0.26563 0.25,0.46875 0.34375,0.25 2.390625,0.71875 2.046875,0.45313 2.859375,1.14063 0.796875,0.67187 0.796875,1.89062 0,1.34375 -1.109375,2.29688 -1.109375,0.95312 -3.28125,0.95312 -1.984375,0 -3.140625,-0.79687 -1.140625,-0.8125 -1.5,-2.1875 z m 16.875717,-0.3125 2.546875,0.42187 q -0.484375,1.40625 -1.546875,2.14063 -1.0625,0.73437 -2.65625,0.73437 -2.515625,0 -3.734375,-1.65625 -0.953125,-1.3125 -0.953125,-3.32812 0,-2.40625 1.25,-3.76563 1.265625,-1.35937 3.1875,-1.35937 2.15625,0 3.40625,1.42187 1.25,1.42188 1.1875,4.375 h -6.40625 q 0.03125,1.14063 0.609375,1.78125 0.59375,0.625 1.484375,0.625 0.59375,0 1,-0.32812 0.421875,-0.32813 0.625,-1.0625 z m 0.15625,-2.59375 q -0.03125,-1.10938 -0.578125,-1.6875 -0.546875,-0.57813 -1.328125,-0.57813 -0.84375,0 -1.390625,0.60938 -0.546875,0.60937 -0.53125,1.65625 z m 7.078842,5.67187 h -2.5625 v -9.67187 h 2.375 v 1.375 q 0.609375,-0.98438 1.09375,-1.28125 0.484375,-0.3125 1.109375,-0.3125 0.875,0 1.6875,0.48437 l -0.796875,2.23438 q -0.640625,-0.42188 -1.203125,-0.42188 -0.53125,0 -0.90625,0.29688 -0.375,0.29687 -0.59375,1.07812 -0.203125,0.76563 -0.203125,3.23438 z"
       id="path115"
       inkscape:connector-curvature="0"
       style="fill:#000000;fill-rule:nonzero" />
    <path
       d="M 31.603674,349.09973 H 114.02886 V 391.6824 H 31.603674 Z"
       id="path117"
       inkscape:connector-curvature="0"
       style="fill:#000000;fill-opacity:0;fill-rule:evenodd" />
    <path
       d="m 44.96305,376.01974 v -11.09375 h -3.953125 v -2.26562 H 51.6193 v 2.26562 h -3.953125 v 11.09375 z m 8.395981,0 v -13.35937 h 4.328125 q 2.453125,0 3.203125,0.20312 1.140625,0.29688 1.921875,1.3125 0.78125,1 0.78125,2.59375 0,1.23438 -0.453125,2.07813 -0.453125,0.82812 -1.140625,1.3125 -0.6875,0.46875 -1.390625,0.625 -0.96875,0.20312 -2.796875,0.20312 h -1.765625 v 5.03125 z m 2.6875,-11.09375 v 3.78125 h 1.484375 q 1.59375,0 2.125,-0.20312 0.546875,-0.20313 0.84375,-0.65625 0.3125,-0.45313 0.3125,-1.03125 0,-0.73438 -0.4375,-1.20313 -0.421875,-0.48437 -1.078125,-0.59375 -0.484375,-0.0937 -1.9375,-0.0937 z m 9.724823,11.09375 v -13.35937 h 4.03125 l 2.421875,9.10937 2.390625,-9.10937 h 4.046875 v 13.35937 h -2.5 v -10.51562 l -2.65625,10.51562 h -2.59375 l -2.640625,-10.51562 v 10.51562 z"
       id="path119"
       inkscape:connector-curvature="0"
       style="fill:#000000;fill-rule:nonzero" />
    <path
       d="m 791.937,508.18372 h 86.24145 l 3.71332,-32.97623 33.24732,32.97623 h 24.64044 v 15.23883 0 22.85828 53.336 h -24.64044 -36.96064 v 0 H 791.937 v -53.336 -22.85828 0 z"
       id="path121"
       inkscape:connector-curvature="0"
       style="fill:#f4cccc;fill-rule:evenodd" />
    <path
       d="m 791.937,508.18372 h 86.24145 l 3.71332,-32.97623 33.24732,32.97623 h 24.64044 v 15.23883 0 22.85828 53.336 h -24.64044 -36.96064 v 0 H 791.937 v -53.336 -22.85828 0 z"
       id="path123"
       inkscape:connector-curvature="0"
       style="fill-rule:evenodd;stroke:#000000;stroke-width:1;stroke-linecap:butt;stroke-linejoin:round" />
    <path
       d="m 807.0758,534.5234 1.65625,-0.14062 q 0.125,1 0.54687,1.64062 0.4375,0.64063 1.34375,1.04688 0.92188,0.39062 2.0625,0.39062 1,0 1.78125,-0.29687 0.78125,-0.29688 1.15625,-0.8125 0.375,-0.53125 0.375,-1.15625 0,-0.625 -0.375,-1.09375 -0.35937,-0.46875 -1.1875,-0.79688 -0.54687,-0.20312 -2.39062,-0.64062 -1.82813,-0.45313 -2.5625,-0.84375 -0.96875,-0.5 -1.4375,-1.23438 -0.46875,-0.75 -0.46875,-1.67187 0,-1 0.57812,-1.875 0.57813,-0.89063 1.67188,-1.34375 1.10937,-0.45313 2.45312,-0.45313 1.48438,0 2.60938,0.48438 1.14062,0.46875 1.75,1.40625 0.60937,0.92187 0.65625,2.09375 l -1.6875,0.125 q -0.14063,-1.26563 -0.9375,-1.90625 -0.78125,-0.65625 -2.3125,-0.65625 -1.60938,0 -2.34375,0.59375 -0.73438,0.59375 -0.73438,1.42187 0,0.71875 0.53125,1.17188 0.5,0.46875 2.65625,0.96875 2.15625,0.48437 2.95313,0.84375 1.17187,0.53125 1.71875,1.35937 0.5625,0.82813 0.5625,1.90625 0,1.0625 -0.60938,2.01563 -0.60937,0.9375 -1.75,1.46875 -1.14062,0.51562 -2.57812,0.51562 -1.8125,0 -3.04688,-0.53125 -1.21875,-0.53125 -1.92187,-1.59375 -0.6875,-1.0625 -0.71875,-2.40625 z m 19.45917,1.1875 1.6875,0.20313 q -0.40625,1.48437 -1.48438,2.3125 -1.07812,0.8125 -2.76562,0.8125 -2.125,0 -3.375,-1.29688 -1.23438,-1.3125 -1.23438,-3.67187 0,-2.45313 1.25,-3.79688 1.26563,-1.34375 3.26563,-1.34375 1.9375,0 3.15625,1.32813 1.23437,1.3125 1.23437,3.70312 0,0.15625 0,0.4375 h -7.21875 q 0.0937,1.59375 0.90625,2.45313 0.8125,0.84375 2.01563,0.84375 0.90625,0 1.54687,-0.46875 0.64063,-0.48438 1.01563,-1.51563 z m -5.39063,-2.65625 h 5.40625 q -0.10937,-1.21875 -0.625,-1.82812 -0.78125,-0.95313 -2.03125,-0.95313 -1.125,0 -1.90625,0.76563 -0.76562,0.75 -0.84375,2.01562 z m 8.48511,2.875 1.625,-0.25 q 0.125,0.96875 0.75,1.5 0.625,0.51563 1.75,0.51563 1.125,0 1.67187,-0.45313 0.54688,-0.46875 0.54688,-1.09375 0,-0.54687 -0.48438,-0.875 -0.32812,-0.21875 -1.67187,-0.54687 -1.8125,-0.46875 -2.51563,-0.79688 -0.6875,-0.32812 -1.04687,-0.90625 -0.35938,-0.59375 -0.35938,-1.3125 0,-0.64062 0.29688,-1.1875 0.29687,-0.5625 0.8125,-0.92187 0.375,-0.28125 1.03125,-0.46875 0.67187,-0.20313 1.42187,-0.20313 1.14063,0 2,0.32813 0.85938,0.32812 1.26563,0.89062 0.42187,0.5625 0.57812,1.5 l -1.60937,0.21875 q -0.10938,-0.75 -0.64063,-1.17187 -0.51562,-0.42188 -1.46875,-0.42188 -1.14062,0 -1.625,0.375 -0.46875,0.375 -0.46875,0.875 0,0.3125 0.1875,0.57813 0.20313,0.26562 0.64063,0.4375 0.23437,0.0937 1.4375,0.42187 1.75,0.45313 2.4375,0.75 0.6875,0.29688 1.07812,0.85938 0.39063,0.5625 0.39063,1.40625 0,0.82812 -0.48438,1.54687 -0.46875,0.71875 -1.375,1.125 -0.90625,0.39063 -2.04687,0.39063 -1.875,0 -2.875,-0.78125 -0.98438,-0.78125 -1.25,-2.32813 z m 9.32812,0 1.625,-0.25 q 0.125,0.96875 0.75,1.5 0.625,0.51563 1.75,0.51563 1.125,0 1.67188,-0.45313 0.54687,-0.46875 0.54687,-1.09375 0,-0.54687 -0.48437,-0.875 -0.32813,-0.21875 -1.67188,-0.54687 -1.8125,-0.46875 -2.51562,-0.79688 -0.6875,-0.32812 -1.04688,-0.90625 -0.35937,-0.59375 -0.35937,-1.3125 0,-0.64062 0.29687,-1.1875 0.29688,-0.5625 0.8125,-0.92187 0.375,-0.28125 1.03125,-0.46875 0.67188,-0.20313 1.42188,-0.20313 1.14062,0 2,0.32813 0.85937,0.32812 1.26562,0.89062 0.42188,0.5625 0.57813,1.5 l -1.60938,0.21875 q -0.10937,-0.75 -0.64062,-1.17187 -0.51563,-0.42188 -1.46875,-0.42188 -1.14063,0 -1.625,0.375 -0.46875,0.375 -0.46875,0.875 0,0.3125 0.1875,0.57813 0.20312,0.26562 0.64062,0.4375 0.23438,0.0937 1.4375,0.42187 1.75,0.45313 2.4375,0.75 0.6875,0.29688 1.07813,0.85938 0.39062,0.5625 0.39062,1.40625 0,0.82812 -0.48437,1.54687 -0.46875,0.71875 -1.375,1.125 -0.90625,0.39063 -2.04688,0.39063 -1.875,0 -2.875,-0.78125 -0.98437,-0.78125 -1.25,-2.32813 z m 9.98438,-8.57812 v -1.89063 h 1.64062 v 1.89063 z m 0,11.46875 v -9.67188 h 1.64062 v 9.67188 z m 3.53546,-4.84375 q 0,-2.6875 1.48438,-3.96875 1.25,-1.07813 3.04687,-1.07813 2,0 3.26563,1.3125 1.26562,1.29688 1.26562,3.60938 0,1.85937 -0.5625,2.9375 -0.5625,1.0625 -1.64062,1.65625 -1.0625,0.59375 -2.32813,0.59375 -2.03125,0 -3.28125,-1.29688 -1.25,-1.3125 -1.25,-3.76562 z m 1.6875,0 q 0,1.85937 0.79688,2.79687 0.8125,0.92188 2.04687,0.92188 1.21875,0 2.03125,-0.92188 0.8125,-0.9375 0.8125,-2.84375 0,-1.79687 -0.8125,-2.71875 -0.8125,-0.92187 -2.03125,-0.92187 -1.23437,0 -2.04687,0.92187 -0.79688,0.90625 -0.79688,2.76563 z m 9.29761,4.84375 v -9.67188 h 1.46875 v 1.375 q 1.0625,-1.59375 3.07812,-1.59375 0.875,0 1.60938,0.3125 0.73437,0.3125 1.09375,0.82813 0.375,0.5 0.51562,1.20312 0.0937,0.45313 0.0937,1.59375 v 5.95313 h -1.64062 v -5.89063 q 0,-1 -0.20313,-1.48437 -0.1875,-0.5 -0.67187,-0.79688 -0.48438,-0.29687 -1.14063,-0.29687 -1.04687,0 -1.8125,0.67187 -0.75,0.65625 -0.75,2.51563 v 5.28125 z m 15.55902,3.70312 v -13.375 h 1.48437 v 1.25 q 0.53125,-0.73437 1.1875,-1.09375 0.67188,-0.375 1.625,-0.375 1.23438,0 2.17188,0.64063 0.95312,0.625 1.4375,1.79687 0.48437,1.15625 0.48437,2.54688 0,1.48437 -0.53125,2.67187 -0.53125,1.1875 -1.54687,1.82813 -1.01563,0.625 -2.14063,0.625 -0.8125,0 -1.46875,-0.34375 -0.65625,-0.34375 -1.0625,-0.875 v 4.70312 z m 1.48437,-8.48437 q 0,1.85937 0.75,2.76562 0.76563,0.89063 1.82813,0.89063 1.09375,0 1.875,-0.92188 0.78125,-0.9375 0.78125,-2.875 0,-1.84375 -0.76563,-2.76562 -0.75,-0.92188 -1.8125,-0.92188 -1.04687,0 -1.85937,0.98438 -0.79688,0.96875 -0.79688,2.84375 z m 8.28192,-0.0625 q 0,-2.6875 1.48438,-3.96875 1.25,-1.07813 3.04687,-1.07813 2,0 3.26563,1.3125 1.26562,1.29688 1.26562,3.60938 0,1.85937 -0.5625,2.9375 -0.5625,1.0625 -1.64062,1.65625 -1.0625,0.59375 -2.32813,0.59375 -2.03125,0 -3.28125,-1.29688 -1.25,-1.3125 -1.25,-3.76562 z m 1.6875,0 q 0,1.85937 0.79688,2.79687 0.8125,0.92188 2.04687,0.92188 1.21875,0 2.03125,-0.92188 0.8125,-0.9375 0.8125,-2.84375 0,-1.79687 -0.8125,-2.71875 -0.8125,-0.92187 -2.03125,-0.92187 -1.23437,0 -2.04687,0.92187 -0.79688,0.90625 -0.79688,2.76563 z m 9.25074,4.84375 V 525.4609 h 1.64062 v 13.35938 z m 4.19171,-11.46875 v -1.89063 h 1.64062 v 1.89063 z m 0,11.46875 v -9.67188 h 1.64062 v 9.67188 z m 10.45733,-3.54688 1.60938,0.21875 q -0.26563,1.65625 -1.35938,2.60938 -1.07812,0.9375 -2.67187,0.9375 -1.98438,0 -3.1875,-1.29688 -1.20313,-1.29687 -1.20313,-3.71875 0,-1.57812 0.51563,-2.75 0.51562,-1.17187 1.57812,-1.75 1.0625,-0.59375 2.3125,-0.59375 1.57813,0 2.57813,0.79688 1,0.79687 1.28125,2.26562 l -1.59375,0.23438 q -0.23438,-0.96875 -0.8125,-1.45313 -0.57813,-0.5 -1.39063,-0.5 -1.23437,0 -2.01562,0.89063 -0.78125,0.89062 -0.78125,2.8125 0,1.95312 0.75,2.84375 0.75,0.875 1.95312,0.875 0.96875,0 1.60938,-0.59375 0.65625,-0.59375 0.82812,-1.82813 z m 2.9375,7.26563 -0.1875,-1.53125 q 0.54688,0.14062 0.9375,0.14062 0.54688,0 0.875,-0.1875 0.32813,-0.17187 0.54688,-0.5 0.15625,-0.25 0.5,-1.21875 0.0469,-0.14062 0.14062,-0.40625 l -3.67187,-9.6875 h 1.76562 l 2.01563,5.59375 q 0.39062,1.07813 0.70312,2.25 0.28125,-1.125 0.67188,-2.20312 l 2.07812,-5.64063 h 1.64063 l -3.6875,9.82813 q -0.59375,1.60937 -0.92188,2.20312 -0.4375,0.8125 -1,1.1875 -0.5625,0.375 -1.34375,0.375 -0.48437,0 -1.0625,-0.20312 z"
       id="path125"
       inkscape:connector-curvature="0"
       style="fill:#000000;fill-rule:nonzero" />
    <path
       d="m 859.9285,557.50775 -0.5,-7.07813 v -2.96875 h 2.03125 v 2.96875 l -0.48438,7.07813 z m -0.4375,3.3125 v -1.875 h 1.89062 v 1.875 z m 13.37079,-7.85938 h -8.82813 v -1.51562 h 8.82813 z m 0,4.0625 h -8.82813 v -1.53125 h 8.82813 z"
       id="path127"
       inkscape:connector-curvature="0"
       style="fill:#000000;fill-rule:nonzero" />
    <path
       d="m 803.9567,582.82025 v -13.35938 h 1.78125 v 6.625 l 6.625,-6.625 h 2.39062 l -5.59375,5.42188 5.84375,7.9375 h -2.32812 l -4.76563,-6.76563 -2.17187,2.14063 v 4.625 z m 18.9436,-3.10938 1.6875,0.20313 q -0.40625,1.48437 -1.48437,2.3125 -1.07813,0.8125 -2.76563,0.8125 -2.125,0 -3.375,-1.29688 -1.23437,-1.3125 -1.23437,-3.67187 0,-2.45313 1.25,-3.79688 1.26562,-1.34375 3.26562,-1.34375 1.9375,0 3.15625,1.32813 1.23438,1.3125 1.23438,3.70312 0,0.15625 0,0.4375 h -7.21875 q 0.0937,1.59375 0.90625,2.45313 0.8125,0.84375 2.01562,0.84375 0.90625,0 1.54688,-0.46875 0.64062,-0.48438 1.01562,-1.51563 z m -5.39062,-2.65625 h 5.40625 q -0.10938,-1.21875 -0.625,-1.82812 -0.78125,-0.95313 -2.03125,-0.95313 -1.125,0 -1.90625,0.76563 -0.76563,0.75 -0.84375,2.01562 z m 9.06317,9.48438 -0.1875,-1.53125 q 0.54688,0.14062 0.9375,0.14062 0.54688,0 0.875,-0.1875 0.32813,-0.17187 0.54688,-0.5 0.15625,-0.25 0.5,-1.21875 0.0469,-0.14062 0.14062,-0.40625 l -3.67187,-9.6875 h 1.76562 l 2.01563,5.59375 q 0.39062,1.07813 0.70312,2.25 0.28125,-1.125 0.67188,-2.20312 l 2.07812,-5.64063 h 1.64063 l -3.6875,9.82813 q -0.59375,1.60937 -0.92188,2.20312 -0.4375,0.8125 -1,1.1875 -0.5625,0.375 -1.34375,0.375 -0.48437,0 -1.0625,-0.20312 z m 20.9021,-4.90625 q -0.92187,0.76562 -1.76562,1.09375 -0.82813,0.3125 -1.79688,0.3125 -1.59375,0 -2.45312,-0.78125 -0.85938,-0.78125 -0.85938,-1.98438 0,-0.71875 0.32813,-1.29687 0.32812,-0.59375 0.84375,-0.9375 0.53125,-0.35938 1.1875,-0.54688 0.46875,-0.125 1.45312,-0.25 1.98438,-0.23437 2.92188,-0.5625 0.0156,-0.34375 0.0156,-0.42187 0,-1 -0.46875,-1.42188 -0.625,-0.54687 -1.875,-0.54687 -1.15625,0 -1.70312,0.40625 -0.54688,0.40625 -0.8125,1.42187 l -1.60938,-0.21875 q 0.21875,-1.01562 0.71875,-1.64062 0.5,-0.64063 1.45313,-0.98438 0.95312,-0.34375 2.1875,-0.34375 1.25,0 2.01562,0.29688 0.78125,0.28125 1.14063,0.73437 0.375,0.4375 0.51562,1.10938 0.0781,0.42187 0.0781,1.51562 v 2.1875 q 0,2.28125 0.10937,2.89063 0.10938,0.59375 0.40625,1.15625 h -1.70312 q -0.26563,-0.51563 -0.32813,-1.1875 z m -0.14062,-3.67188 q -0.89063,0.375 -2.67188,0.625 -1.01562,0.14063 -1.4375,0.32813 -0.42187,0.1875 -0.65625,0.53125 -0.21875,0.34375 -0.21875,0.78125 0,0.65625 0.5,1.09375 0.5,0.4375 1.45313,0.4375 0.9375,0 1.67187,-0.40625 0.75,-0.42188 1.09375,-1.14063 0.26563,-0.5625 0.26563,-1.64062 z m 10.53192,4.85938 v -1.42188 q -1.125,1.64063 -3.0625,1.64063 -0.85938,0 -1.60938,-0.32813 -0.73437,-0.32812 -1.09375,-0.82812 -0.35937,-0.5 -0.5,-1.21875 -0.10937,-0.46875 -0.10937,-1.53125 v -5.98438 h 1.64062 v 5.35938 q 0,1.28125 0.10938,1.73437 0.15625,0.64063 0.65625,1.01563 0.5,0.375 1.23437,0.375 0.73438,0 1.375,-0.375 0.65625,-0.39063 0.92188,-1.03125 0.26562,-0.65625 0.26562,-1.89063 v -5.1875 h 1.64063 v 9.67188 z m 7.62573,-1.46875 0.23437,1.45312 q -0.6875,0.14063 -1.23437,0.14063 -0.89063,0 -1.39063,-0.28125 -0.48437,-0.28125 -0.6875,-0.73438 -0.20312,-0.46875 -0.20312,-1.9375 V 574.414 h -1.20313 v -1.26563 h 1.20313 v -2.39062 l 1.625,-0.98438 v 3.375 h 1.65625 v 1.26563 h -1.65625 v 5.67187 q 0,0.6875 0.0781,0.89063 0.0937,0.20312 0.28125,0.32812 0.20313,0.10938 0.57813,0.10938 0.26562,0 0.71875,-0.0625 z m 1.60516,1.46875 v -13.35938 h 1.64063 v 4.79688 q 1.14062,-1.32813 2.89062,-1.32813 1.07813,0 1.85938,0.42188 0.79687,0.42187 1.14062,1.17187 0.34375,0.75 0.34375,2.17188 v 6.125 h -1.64062 v -6.125 q 0,-1.23438 -0.53125,-1.79688 -0.53125,-0.5625 -1.51563,-0.5625 -0.71875,0 -1.35937,0.39063 -0.64063,0.375 -0.92188,1.01562 -0.26562,0.64063 -0.26562,1.78125 v 5.29688 z m 15.55902,3.70312 v -13.375 h 1.48438 v 1.25 q 0.53125,-0.73437 1.1875,-1.09375 0.67187,-0.375 1.625,-0.375 1.23437,0 2.17187,0.64063 0.95313,0.625 1.4375,1.79687 0.48438,1.15625 0.48438,2.54688 0,1.48437 -0.53125,2.67187 -0.53125,1.1875 -1.54688,1.82813 -1.01562,0.625 -2.14062,0.625 -0.8125,0 -1.46875,-0.34375 -0.65625,-0.34375 -1.0625,-0.875 v 4.70312 z m 1.48438,-8.48437 q 0,1.85937 0.75,2.76562 0.76562,0.89063 1.82812,0.89063 1.09375,0 1.875,-0.92188 0.78125,-0.9375 0.78125,-2.875 0,-1.84375 -0.76562,-2.76562 -0.75,-0.92188 -1.8125,-0.92188 -1.04688,0 -1.85938,0.98438 -0.79687,0.96875 -0.79687,2.84375 z m 8.28198,-0.0625 q 0,-2.6875 1.48437,-3.96875 1.25,-1.07813 3.04688,-1.07813 2,0 3.26562,1.3125 1.26563,1.29688 1.26563,3.60938 0,1.85937 -0.5625,2.9375 -0.5625,1.0625 -1.64063,1.65625 -1.0625,0.59375 -2.32812,0.59375 -2.03125,0 -3.28125,-1.29688 -1.25,-1.3125 -1.25,-3.76562 z m 1.6875,0 q 0,1.85937 0.79687,2.79687 0.8125,0.92188 2.04688,0.92188 1.21875,0 2.03125,-0.92188 0.8125,-0.9375 0.8125,-2.84375 0,-1.79687 -0.8125,-2.71875 -0.8125,-0.92187 -2.03125,-0.92187 -1.23438,0 -2.04688,0.92187 -0.79687,0.90625 -0.79687,2.76563 z m 9.25073,4.84375 v -13.35938 h 1.64063 v 13.35938 z m 4.19171,-11.46875 v -1.89063 h 1.64063 v 1.89063 z m 0,11.46875 v -9.67188 h 1.64063 v 9.67188 z m 10.45728,-3.54688 1.60937,0.21875 q -0.26562,1.65625 -1.35937,2.60938 -1.07813,0.9375 -2.67188,0.9375 -1.98437,0 -3.1875,-1.29688 -1.20312,-1.29687 -1.20312,-3.71875 0,-1.57812 0.51562,-2.75 0.51563,-1.17187 1.57813,-1.75 1.0625,-0.59375 2.3125,-0.59375 1.57812,0 2.57812,0.79688 1,0.79687 1.28125,2.26562 l -1.59375,0.23438 q -0.23437,-0.96875 -0.8125,-1.45313 -0.57812,-0.5 -1.39062,-0.5 -1.23438,0 -2.01563,0.89063 -0.78125,0.89062 -0.78125,2.8125 0,1.95312 0.75,2.84375 0.75,0.875 1.95313,0.875 0.96875,0 1.60937,-0.59375 0.65625,-0.59375 0.82813,-1.82813 z m 2.9375,7.26563 -0.1875,-1.53125 q 0.54687,0.14062 0.9375,0.14062 0.54687,0 0.875,-0.1875 0.32812,-0.17187 0.54687,-0.5 0.15625,-0.25 0.5,-1.21875 0.0469,-0.14062 0.14063,-0.40625 l -3.67188,-9.6875 h 1.76563 l 2.01562,5.59375 q 0.39063,1.07813 0.70313,2.25 0.28125,-1.125 0.67187,-2.20312 l 2.07813,-5.64063 h 1.64062 l -3.6875,9.82813 q -0.59375,1.60937 -0.92187,2.20312 -0.4375,0.8125 -1,1.1875 -0.5625,0.375 -1.34375,0.375 -0.48438,0 -1.0625,-0.20312 z"
       id="path129"
       inkscape:connector-curvature="0"
       style="fill:#000000;fill-rule:nonzero" />
  </g>
</svg>
